<svg xmlns="http://www.w3.org/2000/svg" style="border: 0 !important; clip: rect(0 0 0 0) !important; height: 1px !important; margin: -1px !important; overflow: hidden !important; padding: 0 !important; position: absolute !important; width: 1px !important;" class="root-svg-symbols-element">
    <symbol id="black-arrow-right" viewBox="0 0 19.26 19.24">
      <path d="M19.26,9.61,9.62,0,9.2.42l8.91,8.91H0v.58H18.11L9.2,18.82l.42.42Z"/>
    </symbol>
    <symbol id="cross" viewBox="0 0 8 8">
      <path fill-rule="evenodd" clip-rule="evenodd" d="M4.871 4L7.81961 1.05139C8.06013 0.810868 8.06013 0.420909 7.81961 0.18039C7.57909 -0.0601299 7.18913 -0.0601299 6.94861 0.18039L4 3.129L1.05139 0.18039C0.810868 -0.0601299 0.420909 -0.0601299 0.18039 0.18039C-0.0601299 0.420909 -0.0601299 0.810868 0.18039 1.05139L3.129 4L0.180389 6.94861C-0.0601301 7.18913 -0.0601301 7.57909 0.180389 7.81961C0.420909 8.06013 0.810868 8.06013 1.05139 7.81961L4 4.871L6.94861 7.81961C7.18913 8.06013 7.57909 8.06013 7.81961 7.81961C8.06013 7.57909 8.06013 7.18913 7.81961 6.94861L4.871 4Z" fill="#000"/>
    </symbol>
    <symbol id="facebook" viewBox="0 0 8 15">
      <path d="M5.2,15V8.16H7.55L7.9,5.49H5.2V3.8c0-.77.21-1.3,1.35-1.3H8V.11C7.3,0,6.59,0,5.89,0A3.25,3.25,0,0,0,2.36,3.52v2H0V8.17H2.36V15Z"/>
    </symbol>
    <symbol id="instagram" viewBox="0 0 16 16">
      <path fill="#000" fill-rule="evenodd" d="M16 11.3c0 1.4-.48 2.6-1.33 3.44A4.7 4.7 0 0 1 11.3 16H4.71a4.7 4.7 0 0 1-3.38-1.26A4.52 4.52 0 0 1 0 11.3V4.69C0 1.92 1.87 0 4.7 0h6.65c1.39 0 2.54.48 3.38 1.32A4.57 4.57 0 0 1 16 4.7v6.62zM11.01 2H4.93c-.88 0-1.66.28-2.16.77-.5.5-.77 1.28-.77 2.16v6.08c0 .89.28 1.66.83 2.22.55.5 1.27.77 2.16.77H11c.89 0 1.66-.28 2.16-.77.55-.5.83-1.28.83-2.16V4.99c0-.89-.28-1.6-.77-2.16A2.96 2.96 0 0 0 11 2z" clip-rule="evenodd"/><path fill="#000" fill-rule="evenodd" d="M11 4c0 .56.44 1 1 1s1-.44 1-1-.44-1-1-1-1 .44-1 1zm-1 4a2 2 0 1 1-4 0 2 2 0 0 1 4 0zm-2.03 4A3.99 3.99 0 0 1 4 8c0-2.24 1.81-4 3.97-4a4 4 0 0 1 0 8z" clip-rule="evenodd"/>
    </symbol>
    <symbol id="mask-card" viewBox="0 0 271.24 392.41">
      <path d="M-.01 162.33c76.75-37.78 130-52.33 177.9-40.41 10.68 3.62 20.73 7.33 30.7 15.39 17.78 14.49 27.15 32.93 33.87 48.54a217 217 0 0 1 11.13 32.53c19.73 67.37 16.45 157.62 16.45 173 .34-91.22-.34-300.19 0-391.41H-.01z"/>
    </symbol>
    <symbol id="mouse-scroll" viewBox="0 0 20 50.96">
      <path d="M14.88,44.67l-.36-.43a.45.45,0,0,0-.63-.09l-.09.09-3.75,4.4L6.29,44.17a.45.45,0,0,0-.63-.1l-.1.1-.36.43a.69.69,0,0,0,0,.86l4.48,5.32a.45.45,0,0,0,.72,0l4.48-5.25A.69.69,0,0,0,14.88,44.67Z" transform="translate(-.06)"/><path d="M14.88,38.67l-.36-.43a.45.45,0,0,0-.63-.09l-.09.09-3.75,4.4L6.29,38.17a.45.45,0,0,0-.63-.1l-.1.1-.36.43a.69.69,0,0,0,0,.86l4.48,5.32a.45.45,0,0,0,.72,0l4.48-5.25A.69.69,0,0,0,14.88,38.67Z" transform="translate(-.06)" opacity=".44" style="isolation:isolate"/><path d="M10.06,1a9,9,0,0,1,9,9V21a9,9,0,1,1-18,0V10A9,9,0,0,1,10.06,1Z" transform="translate(-.06)" fill="#fff" stroke="#000" stroke-width="2"/><path d="M10.06,6.3a.52.52,0,0,1,.54.5.54.54,0,0,1-1.08,0h0A.52.52,0,0,1,10.06,6.3Z" transform="translate(-.06)" fill="#fff" stroke="#000" stroke-width="2"/>
    </symbol>
    <symbol id="play" viewBox="0 0 10 12">
      <path fill-rule="evenodd" clip-rule="evenodd" d="M9.35262 5.4587L2.07594 0.762049C1.86083 0.630934 1.5937 0.652508 1.39194 0.652508C0.584956 0.652508 0.588558 1.29072 0.588558 1.45233V11.0521C0.588558 11.1888 0.585046 11.8521 1.39194 11.8521C1.5937 11.8521 1.86086 11.8737 2.07594 11.7428L9.35259 7.04591C9.94984 6.68188 9.84664 6.25243 9.84664 6.25243C9.84664 6.25243 9.94988 5.82273 9.35262 5.4587Z" fill="#000"/>
    </symbol>
    <symbol id="vk" viewBox="0 0 16 10">
      <path d="M8.54,10c.54,0,.54-.8.54-1.12a1.16,1.16,0,0,1,1.06-1.1c.53,0,1.45,1,2.13,1.66.53.55.53.55,1.07.55h1.6A1.08,1.08,0,0,0,16,8.9c0-.35-.36-.94-1.6-2.23-1.06-1.1-1.61-.53,0-2.77,1-1.37,1.7-2.6,1.58-3S13.13.05,12.8.56a22,22,0,0,0-1.6,2.77c-.52,1.11-.57,1.67-1,1.67s-.53-1.08-.53-1.67C9.6,1.5,9.86.2,9.08,0H7.48a3,3,0,0,0-1.6.56s-.66.53-.53.55,1.06-.23,1.06.56v1.1S6.41,5,5.88,5,4.28,2.78,3.22,1.1C2.8.46,2.68.56,2.15.56L.55.58C0,.58,0,.93,0,1.11A18.12,18.12,0,0,0,3.88,7.83C5.73,9.84,7,10,8,10a4.05,4.05,0,0,0,.53,0Z"/>
    </symbol>
    <symbol id="youtube" viewBox="0 0 25 18">
      <rect x="1" y="1" width="23" height="16" rx="1" ry="1" fill="none" stroke="#000" stroke-linecap="round" stroke-linejoin="round" stroke-width="2"/><path d="M15.62,8.39A.69.69,0,0,1,16,9a.68.68,0,0,1-.38.61l-2.2,1.1L11,11.92a.71.71,0,0,1-.68,0,.67.67,0,0,1-.34-.58V6.69a.7.7,0,0,1,.34-.59.71.71,0,0,1,.68,0l2.4,1.2Z"/>
    </symbol></svg>