<svg width="8" height="8" viewBox="0 0 8 8" fill="none" xmlns="http://www.w3.org/2000/svg"><path fill-rule="evenodd" clip-rule="evenodd" d="M4.871 4L7.81961 1.05139C8.06013 0.810868 8.06013 0.420909 7.81961 0.18039C7.57909 -0.0601299 7.18913 -0.0601299 6.94861 0.18039L4 3.129L1.05139 0.18039C0.810868 -0.0601299 0.420909 -0.0601299 0.18039 0.18039C-0.0601299 0.420909 -0.0601299 0.810868 0.18039 1.05139L3.129 4L0.180389 6.94861C-0.0601301 7.18913 -0.0601301 7.57909 0.180389 7.81961C0.420909 8.06013 0.810868 8.06013 1.05139 7.81961L4 4.871L6.94861 7.81961C7.18913 8.06013 7.57909 8.06013 7.81961 7.81961C8.06013 7.57909 8.06013 7.18913 7.81961 6.94861L4.871 4Z" fill="#000"/></svg>