<svg xmlns="http://www.w3.org/2000/svg" viewBox="0 0 20 50.96"><path d="M14.88,44.67l-.36-.43a.45.45,0,0,0-.63-.09l-.09.09-3.75,4.4L6.29,44.17a.45.45,0,0,0-.63-.1l-.1.1-.36.43a.69.69,0,0,0,0,.86l4.48,5.32a.45.45,0,0,0,.72,0l4.48-5.25A.69.69,0,0,0,14.88,44.67Z" transform="translate(-.06)"/><path d="M14.88,38.67l-.36-.43a.45.45,0,0,0-.63-.09l-.09.09-3.75,4.4L6.29,38.17a.45.45,0,0,0-.63-.1l-.1.1-.36.43a.69.69,0,0,0,0,.86l4.48,5.32a.45.45,0,0,0,.72,0l4.48-5.25A.69.69,0,0,0,14.88,38.67Z" transform="translate(-.06)" opacity=".44" style="isolation:isolate"/><path d="M10.06,1a9,9,0,0,1,9,9V21a9,9,0,1,1-18,0V10A9,9,0,0,1,10.06,1Z" transform="translate(-.06)" fill="#fff" stroke="#000" stroke-width="2"/><path d="M10.06,6.3a.52.52,0,0,1,.54.5.54.54,0,0,1-1.08,0h0A.52.52,0,0,1,10.06,6.3Z" transform="translate(-.06)" fill="#fff" stroke="#000" stroke-width="2"/></svg>