<svg xmlns="http://www.w3.org/2000/svg" viewBox="0 0 16 10"><path d="M8.54,10c.54,0,.54-.8.54-1.12a1.16,1.16,0,0,1,1.06-1.1c.53,0,1.45,1,2.13,1.66.53.55.53.55,1.07.55h1.6A1.08,1.08,0,0,0,16,8.9c0-.35-.36-.94-1.6-2.23-1.06-1.1-1.61-.53,0-2.77,1-1.37,1.7-2.6,1.58-3S13.13.05,12.8.56a22,22,0,0,0-1.6,2.77c-.52,1.11-.57,1.67-1,1.67s-.53-1.08-.53-1.67C9.6,1.5,9.86.2,9.08,0H7.48a3,3,0,0,0-1.6.56s-.66.53-.53.55,1.06-.23,1.06.56v1.1S6.41,5,5.88,5,4.28,2.78,3.22,1.1C2.8.46,2.68.56,2.15.56L.55.58C0,.58,0,.93,0,1.11A18.12,18.12,0,0,0,3.88,7.83C5.73,9.84,7,10,8,10a4.05,4.05,0,0,0,.53,0Z"/></svg>