<svg xmlns="http://www.w3.org/2000/svg" width="38" height="36" fill="none">
  <path fill="#000" fill-rule="evenodd" d="M20.58 18.76a9.9 9.9 0 0 1 7.26-3.2c5.52 0 10 4.58 10 10.2 0 5.62-4.48 10.2-10 10.2s-10-4.58-10-10.2c0-.96.12-1.89.37-2.77a10.27 10.27 0 0 1-7.6 3.37A10.49 10.49 0 0 1 .25 15.8v-.01H.22l.04-.58.03-.63h.02a10.51 10.51 0 0 1 9.75-9.33c.07-.2 1.64-4.5 4.87-4.98 2.19-.32 4.5 1.18 6.9 4.48 2.39 3.3 3.6 3.94 4.2 3.9.58-.03 1.02-.84 1.48-1.7h.01l.41-.74c.66-1.08 1.09-1.8 1.73-1.5.6.27.51.94-.08 2.97-1.24 4.27-2.97 6.59-5.15 6.88-.15.02-.31.03-.47.03-1.18 0-2.3-.58-3.28-1.35.1.42.19.85.24 1.3h.02l.04.64.03.56H21v.06c0 1.03-.15 2.03-.42 2.97zm.3-13.3c-2.11-2.91-4.06-4.26-5.78-4-2.05.3-3.34 2.8-3.76 3.79a10.3 10.3 0 0 1 8.18 5.1c1.2 1.5 3.05 3.24 4.76 3 1.86-.25 3.12-2.78 3.9-5.16-.5.83-1.1 1.6-2.07 1.66-1.35.09-2.97-1.27-5.24-4.4zM17.51 9.6c.12.19.48.76 1.03 1.45a9.4 9.4 0 0 1 1.2 3.6l-.52.02c-3.27 0-7.32-.93-8.04-5.38l-.46-2.87a9.12 9.12 0 0 1 6.79 3.18zm-7.04-3.18h-.08a9.3 9.3 0 0 0-8.91 8.24h.05l.23.01c2.75 0 7.5-.7 8.25-5.38l.47-2.87zm.14 18.73a9.3 9.3 0 0 1-9.2-9.28h.35c4.47 0 7.53-1.54 8.83-4.4 1.29 2.86 4.27 4.4 8.63 4.4a9.28 9.28 0 0 0 .35 0h.04l.2-.01a9.29 9.29 0 0 1-9.2 9.29zm8.4.6a8.91 8.91 0 0 0 8.82 8.98 8.92 8.92 0 0 0 8.82-8.98 8.93 8.93 0 0 0-8.23-8.96 3.16 3.16 0 0 0 3.13 3.16c.33 0 .6.27.6.6a.6.6 0 0 1-.6.6 4.36 4.36 0 0 1-4.31-4.36c-.4.02-.78.08-1.16.15a.6.6 0 0 1 0 .4 3.22 3.22 0 0 0 1.9 4.07.6.6 0 0 1-.2 1.17.58.58 0 0 1-.2-.03 4.43 4.43 0 0 1-2.73-5.26 9 9 0 0 0-5.84 8.46z" clip-rule="evenodd"/>
  <path fill="#000" fill-rule="evenodd" d="M24.21 28.24a3.75 3.75 0 0 0 3.71 3.53 3.75 3.75 0 0 0 3.72-3.79H24.2l.01.26zM24.04 25.76c.54 0 .98-.45.98-1 0-.54-.44-.99-.98-.99a.99.99 0 0 0-.98 1c0 .54.44.99.98.99zM31.63 25.76c.54 0 .98-.45.98-1 0-.54-.44-.99-.98-.99a.99.99 0 0 0-.97 1c0 .54.43.99.97.99zM6.76 20.54a3.75 3.75 0 0 0 3.71 3.54 3.75 3.75 0 0 0 3.72-3.79H6.75l.01.25zM6.6 18.07c.53 0 .97-.45.97-1s-.44-1-.98-1a.99.99 0 0 0-.97 1c0 .55.43 1 .97 1zM14.18 18.07c.54 0 .98-.45.98-1s-.44-1-.98-1a.99.99 0 0 0-.97 1c0 .55.43 1 .97 1z" clip-rule="evenodd"/>
</svg>