<svg width="71" height="85" viewBox="0 0 71 85" fill="none" xmlns="http://www.w3.org/2000/svg">
  <path fill-rule="evenodd" clip-rule="evenodd"
        d="M61.6371 0.809082H23.8651C19.1621 0.809082 15.3381 4.63508 15.3381 9.33608V12.3111H10.8631C5.33406 12.3111 0.83606 16.8091 0.83606 22.3381V74.1641C0.83606 79.6931 5.33406 84.1911 10.8631 84.1911H48.6361C54.1631 84.1911 58.6611 79.6931 58.6611 74.1641V69.6891H61.6361C66.3371 69.6891 70.1631 65.8651 70.1631 61.1621V9.33608C70.1641 4.63508 66.3381 0.809082 61.6371 0.809082ZM55.6621 29.3631V67.1361V74.1631C55.6621 78.0441 52.5161 81.1901 48.6371 81.1901H10.8631C6.98206 81.1901 3.83606 78.0441 3.83606 74.1631V22.3381C3.83606 18.4571 6.98206 15.3111 10.8631 15.3111H48.6361C52.5151 15.3111 55.6611 18.4571 55.6611 22.3381V29.3631H55.6621ZM61.6371 66.6891C64.6841 66.6891 67.1641 64.2111 67.1641 61.1621H67.1631V9.33608C67.1631 6.28908 64.6831 3.80908 61.6361 3.80908H23.8651C20.8171 3.80908 18.3381 6.28908 18.3381 9.33608V12.3111H48.6371C54.1641 12.3111 58.6621 16.8091 58.6621 22.3381V29.3631V66.6891H61.6371Z"
        fill="#E0E0E0"/>
  <rect x="11.75" y="28.123" width="36" height="3" fill="#E0E0E0"/>
  <rect x="11.75" y="40.9961" width="36" height="3" fill="#E0E0E0"/>
  <rect x="11.75" y="53.8711" width="36" height="3" fill="#E0E0E0"/>
  <rect x="11.75" y="66.7439" width="36" height="3" fill="#E0E0E0"/>
</svg>
