<svg xmlns="http://www.w3.org/2000/svg" xmlns:xlink="http://www.w3.org/1999/xlink" width="55" height="56">
  <defs>
    <path id="a" d="M239.52 5302.62a25.78 25.78 0 0 1-25.73-25.74 25.78 25.78 0 0 1 25.73-25.73 25.78 25.78 0 0 1 25.74 25.73c.12 14.06-11.44 25.74-25.74 25.74zm0-53.26a27.4 27.4 0 1 0 .01 54.82 27.4 27.4 0 0 0 0-54.82z"/>
    <path id="b" d="M244.29 5291.65l-4.77 3.22-4.76-3.22c-.12-.12-10.01-6.67-10.01-14.54 0-6.9 3.7-12.74 4.76-14.3l9.9 2.03 9.88-2.02c1.08 1.55 4.77 7.38 4.77 14.3.24 7.86-9.65 14.53-9.77 14.53zm5.84-30.74l-10.6 2.15-10.61-2.15-.24.48c-.24.23-5.48 7.15-5.48 15.72 0 8.82 10.37 15.61 10.72 15.97l5.6 3.81 5.6-3.81c.48-.24 10.73-7.15 10.73-15.97 0-8.57-5.25-15.49-5.48-15.72z"/>
    <path id="c" d="M242.73 5283.2a1.5 1.5 0 0 1-2.14 0 1.51 1.51 0 0 1 0-2.15c.72-.71 3.33-2.02 4.4-2.26-.24 1.2-1.54 3.81-2.26 4.4zm-2.98 2.02l-.23.24-.24-.24a1.82 1.82 0 0 0-.71-.47c.23-.12.47-.24.7-.48l.25-.24.23.24c.24.24.48.36.71.48-.35.12-.59.36-.7.47zm2.98 2.98a1.5 1.5 0 0 1-2.14 0 1.51 1.51 0 0 1 0-2.14 14 14 0 0 1 4.4-2.27 14.04 14.04 0 0 1-2.26 4.41zm-4.3 0a1.5 1.5 0 0 1-2.13 0 14.06 14.06 0 0 1-2.26-4.4c1.07.23 3.69 1.54 4.4 2.26a1.51 1.51 0 0 1 0 2.14zm0-7.03a1.51 1.51 0 0 1 0 2.15 1.5 1.5 0 0 1-2.13 0 14.07 14.07 0 0 1-2.26-4.41c1.07.24 3.8 1.55 4.4 2.26zm0-5a1.5 1.5 0 0 1 0 2.13 1.5 1.5 0 0 1-2.13 0 14.03 14.03 0 0 1-2.26-4.4c1.07.24 3.8 1.55 4.4 2.27zm1.1-1.07h.47c-.12.12-.24.12-.24.23l-.24.24-.24-.24c-.12-.11-.24-.11-.24-.23h.48zm-.01-7.39c.6.95 1.55 3.7 1.55 4.65 0 .83-.72 1.55-1.55 1.55-.83 0-1.55-.72-1.55-1.55.12-.96.95-3.7 1.55-4.65zm5.47 6.2a14 14 0 0 1-2.26 4.4 1.5 1.5 0 0 1-2.14 0 1.5 1.5 0 0 1 0-2.15 14 14 0 0 1 4.4-2.25zm-5.24 6.31l-.24.24-.23-.24c-.12-.12-.36-.36-.71-.48.23-.12.47-.23.7-.47l.24-.24.24.24c.24.24.48.36.71.47-.35.12-.59.36-.7.48zm6.2-2.38c-.23-.24-.6-.36-1.3-.24.95-1.67 2.02-4.05 1.3-4.77-.35-.35-.95-.47-3.21.6-.24.12-.6.24-.96.48.36-.48.48-.96.48-1.55 0-.84-1.31-6.08-2.74-6.08-1.43 0-2.74 5.24-2.74 6.08 0 .6.24 1.19.48 1.55-.36-.12-.6-.36-.96-.48-2.26-1.07-2.98-.84-3.21-.6-.72.72.35 3.1 1.3 4.77-.83-.24-1.07 0-1.3.24-.72.71.35 3.21 1.3 4.76-.59-.12-1.07-.12-1.3.12-1.08 1.07 1.66 5.6 2.38 6.32.6.6 1.19.83 1.9.83.72 0 1.43-.24 1.91-.83l.24-.24.24.24c.6.6 1.19.83 1.9.83.72 0 1.43-.24 1.91-.83.6-.6 3.34-5.24 2.38-6.32-.23-.24-.71-.24-1.3-.12.95-1.55 2.02-4.05 1.3-4.76z"/>
  </defs>
  <use fill="#0c0c0c" transform="translate(-212 -5249)" xlink:href="#a"/>
  <use fill="#0c0c0c" transform="translate(-212 -5249)" xlink:href="#b"/>
  <use fill="#0c0c0c" transform="translate(-212 -5249)" xlink:href="#c"/>
</svg>