<svg xmlns="http://www.w3.org/2000/svg" xmlns:xlink="http://www.w3.org/1999/xlink" width="56" height="56">
  <defs>
    <path id="a"
          d="M53 5085h17.33a1 1 0 0 0 0-2H54v-33h14.33a1 1 0 0 0 0-2H54v-11h2.88a1 1 0 0 0 0-2H53a1 1 0 0 0-1 1v48a1 1 0 0 0 1 1z"/>
    <path id="b" d="M101 5046.5a1 1 0 0 0 1-1v-9.5a1 1 0 0 0-1-1h-3.12a1 1 0 0 0 0 2H100v8.5a1 1 0 0 0 1 1z"/>
    <path id="c" d="M88.25 5036a1 1 0 0 0-1-1h-20a1 1 0 0 0 0 2h20a1 1 0 0 0 1-1z"/>
    <path id="d" d="M85.5 5065.87l7 4a1 1 0 1 0 1-1.74l-6.5-3.71V5054a1 1 0 0 0-2 0v11a1 1 0 0 0 .5.87z"/>
    <path id="e"
          d="M75.16 5048.22l2 3.42a1 1 0 1 0 1.73-1l-2-3.43a19.84 19.84 0 0 1 8.11-2.16v3.95a1 1 0 0 0 2 0v-3.95a19.84 19.84 0 0 1 8.11 2.17l-2 3.43a1 1 0 0 0 1.73 1l2-3.42a20.14 20.14 0 0 1 5.94 5.94l-3.42 2a1 1 0 0 0 1 1.73l3.43-2a19.84 19.84 0 0 1 2.16 8.1H102a1 1 0 0 0 0 2h3.95a19.84 19.84 0 0 1-2.17 8.11l-3.43-2a1 1 0 0 0-1 1.73l3.42 2a20.14 20.14 0 0 1-5.94 5.94l-2-3.42a1 1 0 0 0-1.73 1l2 3.43a19.84 19.84 0 0 1-8.1 2.16V5081a1 1 0 0 0-2 0v3.95a19.84 19.84 0 0 1-8.11-2.17l2-3.43a1 1 0 0 0-1.73-1l-2 3.42a20.14 20.14 0 0 1-5.94-5.94l3.42-2a1 1 0 0 0-1-1.73l-3.43 2a19.84 19.84 0 0 1-2.16-8.1H70a1 1 0 0 0 0-2h-3.95a19.84 19.84 0 0 1 2.17-8.1l3.43 2a1 1 0 0 0 1-1.74l-3.42-2a20.14 20.14 0 0 1 5.93-5.94zm-8.2 27.78v.06a22.16 22.16 0 0 0 8 8h.07a21.92 21.92 0 0 0 21.85 0h.08a22.16 22.16 0 0 0 8-8v-.11a21.92 21.92 0 0 0 0-21.9v-.05a22.16 22.16 0 0 0-8-8h-.05a21.92 21.92 0 0 0-21.9 0h-.05a22.16 22.16 0 0 0-8 8v.05a21.92 21.92 0 0 0 0 21.9v.05z"/>
    <path id="f" d="M65 5054a1 1 0 0 0 0-2h-7a1 1 0 0 0-1 1v7a1 1 0 0 0 1 1h4.58a1 1 0 0 0 0-2H59v-5z"/>
    <path id="g" d="M57 5070a1 1 0 0 0 1 1h4.58a1 1 0 0 0 0-2H59v-5h3.08a1 1 0 0 0 0-2H58a1 1 0 0 0-1 1z"/>
    <path id="h"
          d="M57 5080a1 1 0 0 0 1 1h7a1 1 0 0 0 1-1v-3.08a1 1 0 0 0-2 0v2.08h-5v-5h3.58a1 1 0 0 0 0-2H58a1 1 0 0 0-1 1z"/>
    <path id="i" d="M92 5033h2v6h-2zm3 8a1 1 0 0 0 1-1v-8a1 1 0 0 0-1-1h-4a1 1 0 0 0-1 1v8a1 1 0 0 0 1 1z"/>
    <path id="j" d="M63 5039h-2v-6h2zm-3-8a1 1 0 0 0-1 1v8a1 1 0 0 0 1 1h4a1 1 0 0 0 1-1v-8a1 1 0 0 0-1-1z"/>
  </defs>
  <use transform="translate(-52 -5031)" xlink:href="#a"/>
  <use transform="translate(-52 -5031)" xlink:href="#b"/>
  <use transform="translate(-52 -5031)" xlink:href="#c"/>
  <use transform="translate(-52 -5031)" xlink:href="#d"/>
  <use transform="translate(-52 -5031)" xlink:href="#e"/>
  <use transform="translate(-52 -5031)" xlink:href="#f"/>
  <use transform="translate(-52 -5031)" xlink:href="#g"/>
  <use transform="translate(-52 -5031)" xlink:href="#h"/>
  <use transform="translate(-52 -5031)" xlink:href="#i"/>
  <use transform="translate(-52 -5031)" xlink:href="#j"/>
</svg>
