<svg xmlns="http://www.w3.org/2000/svg" xmlns:xlink="http://www.w3.org/1999/xlink" width="60" height="56">
  <defs>
    <path id="a"
          d="M258.59 5472.53v-8.96c0-.56-.38-.93-.94-.93-.57 0-.94.37-.94.93v35.28h-33.44v-35.28c0-.56-.37-.93-.94-.93-.56 0-.94.37-.94.93v8.96l-9.48-2.05 2.72-16.8a54.43 54.43 0 0 1 12.02-5.32 13.66 13.66 0 0 0 13.34 10.73c6.39 0 11.93-4.48 13.34-10.54a63.64 63.64 0 0 1 12.11 5.13l2.63 16.7zm-28.17-25.1a9.83 9.83 0 0 0 9.58 7.84c4.6 0 8.54-3.18 9.48-7.66l1.97.47a11.85 11.85 0 0 1-23.1-.19zm36.72 5.5a.7.7 0 0 0-.47-.65c-7.42-4.1-12.4-5.32-13.9-5.88l-3.85-.93a.73.73 0 0 0-.75.18c-.19.19-.38.38-.38.66a7.82 7.82 0 0 1-7.8 7 8 8 0 0 1-7.89-7.19.78.78 0 0 0-.37-.65c-.19-.19-.47-.19-.75-.19l-3.86.93c-.75.38-6.38 1.59-13.9 6.07-.28.19-.37.37-.47.65l-2.82 18.11c-.09.47.29.93.76 1.03l10.7 2.33v25.3c0 .55.38.93.94.93h35.23c.56 0 .94-.38.94-.94v-25.29l10.8-2.33c.47-.1.85-.56.76-1.03z"/>
    <path id="b"
          d="M247.9 5481.86l-7.9 7.84-7.89-7.84c-4.8-4.76 2.44-11.94 7.23-7.18.2.18.38.28.66.28s.47-.1.66-.28c4.79-4.76 12.02 2.42 7.23 7.18zm-7.9-9.14c-6.57-5.32-15.5 4.2-9.2 10.45l8.54 8.5c.2.18.47.27.66.27.19 0 .47-.09.66-.28l8.55-8.49c6.3-6.25-2.63-15.68-9.2-10.45z"/>
  </defs>
  <use transform="translate(-210 -5445)" xlink:href="#a"/>
  <use transform="translate(-210 -5445)" xlink:href="#b"/>
</svg>
