<svg xmlns="http://www.w3.org/2000/svg" xmlns:xlink="http://www.w3.org/1999/xlink" width="56" height="54">
  <defs>
    <path id="a"
          d="M71.5 5258.6c.38.75.78 1.53 1.23 2.31a5.57 5.57 0 0 1-1.85-2 5.64 5.64 0 0 1-.53-2.66c.32.7.73 1.51 1.15 2.35zm3.26-.77a5.6 5.6 0 0 1-.48 2.66 103.71 103.71 0 0 0-.46-5.21c.51.75.84 1.63.94 2.55zm2.65 4.2a2.9 2.9 0 0 1 1.23 2.26l.05 1.33-2.2.6a.61.61 0 1 0 .33 1.19l1.9-.55.43 12.5a.17.17 0 0 1-.32.1l-3.07-5.36 1.6-.46a.61.61 0 1 0-.33-1.18l-1.77.51a.61.61 0 0 0-.12.06l-1.33-2.16 1.3-.38a.63.63 0 1 0-.34-1.2l-1.6.45-1.6-2.73 1.17-.33a.61.61 0 1 0-.34-1.18l-1.4.4a2.9 2.9 0 0 1 1.95-3.75l1.93-.55a2.9 2.9 0 0 1 2.53.44zm-5.97-.51a4.13 4.13 0 0 0-1.27 5.52l7.58 13.03c.33.56.99.82 1.6.65a1.4 1.4 0 0 0 1.02-1.4l-.52-15.1a4.14 4.14 0 0 0-4.19-3.99c.28-.8.4-1.66.34-2.51-.25-2.78-2.56-4.78-2.66-4.86a.62.62 0 0 0-1 .55s.29 2.08.52 4.6c0 .2.03.43.05.6l-.3-.56a101.53 101.53 0 0 1-1.99-4.17.62.62 0 0 0-1.15.06c-.04.13-.93 3.07.33 5.53.4.78.96 1.48 1.64 2.05z"/>
    <path id="b"
          d="M62.02 5254.2c1.07.56 3.63 2.14 4.31 4.57.62 2.2-.47 4.59-1.15 5.78a33.06 33.06 0 0 1-2-5.64l-.17-.7a.62.62 0 0 0-1.2.3l.17.7a34.1 34.1 0 0 0 1.62 4.8c-1.14-.8-2.46-2.06-2.92-3.7-.68-2.42.72-5.09 1.34-6.12zm2.5 11.83a34.34 34.34 0 0 0 2.59 4.36l.41.61c.2.26.57.32.84.13a.61.61 0 0 0 .17-.83l-.41-.61a33.16 33.16 0 0 1-2.31-3.83c.51-.78 2.59-4.17 1.69-7.42-1-3.64-5.27-5.53-5.45-5.6a.62.62 0 0 0-.75.23c-.11.16-2.81 3.97-1.8 7.6.82 2.97 3.89 4.79 5.02 5.36z"/>
    <path id="c"
          d="M59.95 5277.31a1.76 1.76 0 0 1-3.08-.3.62.62 0 0 0-1.13.47 2.99 2.99 0 0 0 5.24.5.61.61 0 0 0-.48-.95.62.62 0 0 0-.55.28z"/>
    <path id="d"
          d="M73.28 5279.72c0 .62-.51 1.13-1.14 1.13a1.13 1.13 0 0 1-1.14-1.13 1.13 1.13 0 0 1 1.94-.8c.22.21.34.5.34.8zm-3.51 0a2.36 2.36 0 0 0 2.36 2.35 2.36 2.36 0 0 0 2.37-2.35 2.36 2.36 0 0 0-2.37-2.36 2.37 2.37 0 0 0-2.36 2.36z"/>
    <path id="e"
          d="M100.14 5260.49c.63 0 1.14.5 1.14 1.13 0 .63-.51 1.14-1.14 1.14a1.14 1.14 0 1 1 0-2.28zm0 3.48a2.36 2.36 0 0 0 2.36-2.35 2.36 2.36 0 0 0-2.37-2.36 2.36 2.36 0 0 0-2.36 2.36 2.37 2.37 0 0 0 2.36 2.35z"/>
    <path id="f"
          d="M82.75 5256.4a1.13 1.13 0 1 1 0 2.26c-.63 0-1.14-.5-1.14-1.12 0-.63.5-1.13 1.14-1.13zm0 3.5a2.36 2.36 0 0 0 2.36-2.36 2.36 2.36 0 0 0-2.37-2.36 2.36 2.36 0 0 0-2.36 2.36 2.37 2.37 0 0 0 2.36 2.35z"/>
    <path id="g"
          d="M56.39 5264.55c.63 0 1.13.5 1.13 1.13 0 .62-.5 1.12-1.13 1.12a1.13 1.13 0 0 1-1.14-1.12 1.12 1.12 0 0 1 1.14-1.13zm0 3.48a2.36 2.36 0 0 0 2.36-2.35 2.36 2.36 0 0 0-2.37-2.36 2.36 2.36 0 0 0-2.36 2.36 2.37 2.37 0 0 0 2.36 2.35z"/>
    <path id="h"
          d="M64.64 5290.6a.62.62 0 0 0-.84-.23.61.61 0 0 0-.23.84c.2.34.4.67.62 1 .19.28.57.36.85.17a.61.61 0 0 0 .18-.85 23.38 23.38 0 0 1-.58-.93z"/>
    <path id="i"
          d="M71.84 5297.25c-.4-.2-.8-.42-1.18-.65a20.07 20.07 0 0 1-1.35-.88 17.18 17.18 0 0 1-2.09-1.77l-.23-.23a4.34 4.34 0 0 1-.38-.41.62.62 0 0 0-.87-.08.61.61 0 0 0-.07.87c.14.18.3.34.46.5l.22.22a18.4 18.4 0 0 0 2.24 1.9 19.85 19.85 0 0 0 2.67 1.64.62.62 0 0 0 .93-.58.61.61 0 0 0-.38-.51z"/>
    <path id="j"
          d="M106.37 5264.52l-2.25 4.08a.57.57 0 0 0 0 .09.61.61 0 0 0-.03.12 1.42 1.42 0 0 0 0 .23.61.61 0 0 0 .05.13l.03.08a3.41 3.41 0 0 1 .32 3.48l-.65 1.28-.21-.46a2.78 2.78 0 0 0-1.94-1.55h-.1a1.54 1.54 0 0 1-1.1-.9 2.79 2.79 0 0 0-2.22-1.68h-.11l.64-.66a3.5 3.5 0 0 1 1.73-1 3.39 3.39 0 0 1 2.18.33.61.61 0 0 0 .1 0 .62.62 0 0 0 .12 0 .62.62 0 0 0 .12 0 .36.36 0 0 0 .21-.08.61.61 0 0 0 .1-.06.61.61 0 0 0 .08-.09.61.61 0 0 0 .07-.08l2.04-3.68a.45.45 0 0 1 .68-.13.45.45 0 0 1 .14.55zm-26.68 19.83c0-.03 0-.08.05-.11a8.78 8.78 0 0 1 3.86-3.98l2.87-1.55a40.48 40.48 0 0 0 9.71-7.28l.89-.9 1.04.1c.55.06 1.02.42 1.23.93a2.77 2.77 0 0 0 1.99 1.63h.1c.46.12.85.44 1.04.87l.62 1.34-4.53 8.95zm20.05 3.7h-40.1a19.32 19.32 0 0 1-.26-2.46H100c-.03.83-.11 1.65-.25 2.47zm-20.05 14.72c-10.43 0-17.92-5.27-19.82-13.5H99.5c-1.9 8.23-9.4 13.5-19.82 13.5zm-19.6-22.38a.62.62 0 0 0-.44-.28.61.61 0 0 0-.69.53 2.58 2.58 0 0 1-4.68 1.1 2.56 2.56 0 0 1 0-2.9v-.05a.84.84 0 0 0 .08-.22.61.61 0 0 0-.13-.45 2.56 2.56 0 0 1-.04-3.3 2.58 2.58 0 0 1 3.24-.63c.1.06.22.08.33.07h.13c.33-.07.54-.4.47-.73a2.56 2.56 0 0 1 .87-2.54 2.59 2.59 0 0 1 2.67-.38 2.57 2.57 0 0 1 1.55 2.2c.01.17.1.33.23.44l.1.05.08.04c.24.09.52.01.68-.19a1.76 1.76 0 0 1 1.85-.58 1.75 1.75 0 1 1 .38 3.2c-.3.15-.64.21-.97.18a.62.62 0 0 0-.68.54.61.61 0 0 0 .07.33l2.07 6.63-1.18.62-2.21-4.38a.62.62 0 0 0-1.1.55l2.05 4.11h-1.74zm46.96-17.37a1.68 1.68 0 0 0-2.55.48l-1.79 3.24a4.42 4.42 0 0 0-2.42-.2 4.72 4.72 0 0 0-2.35 1.34l-2.65 2.69a39.22 39.22 0 0 1-9.4 7.04l-2.9 1.56a10.02 10.02 0 0 0-4.4 4.58c-.1.2-.16.42-.24.61H68.26a.61.61 0 0 0 .3-.73l-2.01-6.48a2.97 2.97 0 1 0 1.27-5.26 3 3 0 0 0-3.2-.31c-.05 0-.09.06-.14.08a3.8 3.8 0 0 0-7.36 1.09 3.8 3.8 0 0 0-4.05 1.5 3.78 3.78 0 0 0-.03 4.3 3.8 3.8 0 0 0 1.64 5.13 3.81 3.81 0 0 0 5.13-1.63l1.75 2.32h-2.79a.61.61 0 0 0-.62.6c0 11.2 8.86 19.03 21.54 19.03 12.69 0 21.54-7.82 21.54-19.02a.61.61 0 0 0-.61-.62h-.7l5.66-11.07a4.58 4.58 0 0 0-.2-4.4l2.07-3.78c.38-.7.21-1.57-.4-2.09z"/>
    <path id="k"
          d="M95.93 5273.51a39.1 39.1 0 0 1-2.96 2.35.61.61 0 0 0 .1 1.08c.2.09.44.06.62-.08a45.93 45.93 0 0 0 3.07-2.43.61.61 0 0 0-.2-1.06.62.62 0 0 0-.61.14z"/>
    <path id="l"
          d="M88.67 5278.54l-2.9 1.53a10.5 10.5 0 0 0-3 2.4.61.61 0 0 0 .35 1.02c.21.04.44-.04.58-.21a9.28 9.28 0 0 1 2.65-2.1l2.89-1.56c.3-.16.4-.53.24-.83a.62.62 0 0 0-.83-.25z"/>
    <path id="m"
          d="M84.96 5263.76a3.37 3.37 0 0 1 2.03-2.55 5.05 5.05 0 0 1 1.93-.34 8.69 8.69 0 0 1 1.89.23 6.45 6.45 0 0 1 3.4 1.74 3.37 3.37 0 0 1 .74 3.16c-.5 2.13-4.57 4.87-6.62 6.06-1.33-1.94-3.85-6.17-3.37-8.3zm5.31-8.68c.38-1.66 1.85-2.89 2.6-3.44.47.8.78 1.69.93 2.6a5 5 0 0 0-1.76 1.45 5.74 5.74 0 0 0-.97 3.47c-.46-.88-1.15-2.5-.8-4.08zm2.06 4.5a4.83 4.83 0 0 1 .7-3.16 4.89 4.89 0 0 1 2.82-1.6 4.83 4.83 0 0 1-.7 3.16 4.88 4.88 0 0 1-2.82 1.6zm-4.64 13.64c.18.25.52.33.8.18.7-.39 6.96-3.87 7.7-7.12a4.58 4.58 0 0 0-1.03-4.26 6.28 6.28 0 0 0-1.96-1.4 5.72 5.72 0 0 0 2.97-1.93c1.36-1.94.83-4.61.81-4.72a.61.61 0 0 0-.68-.5c-.45.06-.9.16-1.34.3a9.28 9.28 0 0 0-1.4-3.34.62.62 0 0 0-.8-.18c-.12.06-3.08 1.73-3.7 4.55-.44 1.96.36 3.9.92 4.91a6.97 6.97 0 0 0-3.47.36 4.6 4.6 0 0 0-2.75 3.43c-.74 3.25 3.42 9.07 3.93 9.72z"/>
    <path id="n"
          d="M88.44 5268.13c-.72-1.6-1-2.86-.82-3.68.12-.56.37-1.08.72-1.53a.61.61 0 0 0-.37-1 .62.62 0 0 0-.57.21 4.82 4.82 0 0 0-.98 2.05c-.24 1.09.06 2.59.9 4.45a.62.62 0 0 0 1.12-.5z"/>
  </defs>
  <use transform="translate(-52 -5250)" xlink:href="#a"/>
  <use transform="translate(-52 -5250)" xlink:href="#b"/>
  <use transform="translate(-52 -5250)" xlink:href="#c"/>
  <use transform="translate(-52 -5250)" xlink:href="#d"/>
  <use transform="translate(-52 -5250)" xlink:href="#e"/>
  <use transform="translate(-52 -5250)" xlink:href="#f"/>
  <use transform="translate(-52 -5250)" xlink:href="#g"/>
  <use transform="translate(-52 -5250)" xlink:href="#h"/>
  <use transform="translate(-52 -5250)" xlink:href="#i"/>
  <use transform="translate(-52 -5250)" xlink:href="#j"/>
  <use transform="translate(-52 -5250)" xlink:href="#k"/>
  <use transform="translate(-52 -5250)" xlink:href="#l"/>
  <use transform="translate(-52 -5250)" xlink:href="#m"/>
  <use transform="translate(-52 -5250)" xlink:href="#n"/>
</svg>
