<svg xmlns="http://www.w3.org/2000/svg" xmlns:xlink="http://www.w3.org/1999/xlink" width="42" height="56">
  <defs>
    <path id="a"
          d="M93.7 5499.2v-5.43h5.46v5.42zm-32.87-5.43h5.46v5.42h-5.46zm3.2-11.16l7.38-2.28 7.04 9.29a3.6 3.6 0 0 0-2.1 3.25c0 1.68 1.16 3.1 2.74 3.5v2.82H68.13v-12.64H66.3v5.42h-5.47v-5.05a4.5 4.5 0 0 1 3.2-4.31zm10.17-3.15c.81.9 2.74 2.57 5.8 2.57 3.07 0 5-1.67 5.8-2.56l.96.29-6.76 8.9-6.75-8.9zm5.8-1.94c1.65 0 3.2-.4 4.57-1.1v1.7a5.97 5.97 0 0 1-4.57 2.1 5.94 5.94 0 0 1-4.57-2.1v-1.7a10.09 10.09 0 0 0 4.57 1.1zm-8.22-9.94v-5.46a19.45 19.45 0 0 0 8.22 1.85c2.85 0 5.84-.7 8.23-1.85v5.46a8.19 8.19 0 0 1-8.23 8.13 8.19 8.19 0 0 1-8.22-8.13zm-3.65-1.8a2.7 2.7 0 0 1 1.83-2.55v4.35l.03.75a2.7 2.7 0 0 1-1.86-2.56zm10.04-18.97h3.65a10 10 0 0 1 10 9.03h-1.84a8.2 8.2 0 0 0-8.16-7.23h-3.65a8.2 8.2 0 0 0-8.16 7.23h-1.83a10 10 0 0 1 9.99-9.03zM90 5468.33c.02-.25.04-.5.04-.75v-4.35a2.7 2.7 0 0 1 1.83 2.54 2.7 2.7 0 0 1-1.87 2.56zm.04-7.29a7.92 7.92 0 0 0 1.83-1.75v2.9a4.54 4.54 0 0 0-1.83-.84zm-18.18-5.2a6.37 6.37 0 0 1 6.31-5.42h3.65a6.37 6.37 0 0 1 6.31 5.42zm-2.6 1.8h21.49c-1.07 2.33-6.03 4.51-10.74 4.51-4.72 0-9.68-2.18-10.75-4.5zm.7 3.4v.3a4.56 4.56 0 0 0-1.83.84v-2.89a7.9 7.9 0 0 0 1.83 1.75zM80 5494.68c-1 0-1.83-.81-1.83-1.8s.82-1.82 1.83-1.82 1.84.82 1.84 1.81v6.32h-.92v-4.51zm19.17-7.76v5.05H93.7v-5.42h-1.83v12.64h-8.22v-6.32a3.6 3.6 0 0 0-2.1-3.26l7.05-9.28 7.37 2.28a4.5 4.5 0 0 1 3.2 4.3zm-2.66-6.04l-10.12-3.13v-2.51a9.94 9.94 0 0 0 3.28-5 4.53 4.53 0 0 0 4.03-4.47v-9.03c0-6.47-5.33-11.74-11.87-11.74h-3.66a11.82 11.82 0 0 0-11.87 11.74v9.03c0 2.31 1.77 4.2 4.03 4.47a9.94 9.94 0 0 0 3.28 5v2.52l-10.13 3.13a6.3 6.3 0 0 0-4.48 6.03V5501h42v-14.08a6.3 6.3 0 0 0-4.49-6.04z"/>
    <path id="b" d="M83.65 5464.88c0-.5.41-.91.92-.91a.91.91 0 0 1 .91.9c0 .5-.41.91-.91.91a.91.91 0 0 1-.92-.9z"/>
    <path id="c" d="M74.52 5464.88c0-.5.41-.91.92-.91a.91.91 0 0 1 .91.9c0 .5-.41.91-.91.91a.91.91 0 0 1-.92-.9z"/>
    <path id="d"
          d="M80 5473a3.64 3.64 0 0 0 3.65-3.61h-1.82c0 1-.82 1.8-1.83 1.8a1.82 1.82 0 0 1-1.82-1.8h-1.83c0 2 1.64 3.61 3.65 3.61z"/>
    <path id="e" d="M79.09 5454.04v-1.81h1.83v1.81z"/>
  </defs>
  <use transform="translate(-59 -5445)" xlink:href="#a"/>
  <use transform="translate(-59 -5445)" xlink:href="#b"/>
  <use transform="translate(-59 -5445)" xlink:href="#c"/>
  <use transform="translate(-59 -5445)" xlink:href="#d"/>
  <use transform="translate(-59 -5445)" xlink:href="#e"/>
</svg>
