<svg xmlns="http://www.w3.org/2000/svg" xmlns:xlink="http://www.w3.org/1999/xlink" width="50" height="56">
  <defs>
    <path id="a" d="M80 4870.6l-.1-.02c-.7-.02-1.51-.27-2.38-.72-.2-.1-.39-.22-.59-.34a12.58 12.58 0 0 1-1.02-.68 21.5 21.5 0 0 1-6.88-9.27 19.35 19.35 0 0 1-.42-1.22 17.84 17.84 0 0 1-.7-3.35l.34-.5c.27-.38.56-.72.86-1.03 2.32-2.37 5.58-2.94 9.26-3.57 1.4-.24 2.85-.5 4.3-.86a6.16 6.16 0 0 0 4.07-2.91c1.7-2.99.55-6.9.5-7.06a.92.92 0 0 0-1.75.53c.01.03.98 3.31-.34 5.62a4.34 4.34 0 0 1-2.92 2.05c-1.39.35-2.8.6-4.17.83-3.86.67-7.54 1.3-10.25 4.07.12-10.6 2.1-15.34 12.2-15.34 6.86 0 9.1 2.47 10.18 4.34 1.63 2.78 1.97 6.79 1.97 11.94v.14a18.49 18.49 0 0 1-.74 5.08c-.12.41-.26.83-.4 1.23-1.52 4.17-4.3 7.63-7.03 9.51-.26.18-.52.35-.78.5a9.7 9.7 0 0 1-.84.44 5.9 5.9 0 0 1-2.25.57l-.12.01zm0 11.34a4.47 4.47 0 0 1-4.41-5.14l.32-1.14.74-2.65.38-1.36c1.06.5 2.07.78 2.97.78.91 0 1.89-.24 2.9-.67l.38 1.27.74 2.43.4 1.36a4.47 4.47 0 0 1-4.41 5.12zm-8.16 4.59c.06.32-.01.64-.2.9a1.2 1.2 0 0 1-1 .53c-.6 0-1.1-.43-1.2-1.01a1.22 1.22 0 0 1 2.4-.42zm-6.4-30.03c0-.59.24-1.12.63-1.5l.02.07a19.45 19.45 0 0 0 .65 3.39 2.12 2.12 0 0 1-1.3-1.96zm28.48-1.58a2.11 2.11 0 0 1-.64 3.57c.31-1.16.53-2.35.64-3.57zm8.55 34.86h1.98c-3.44-8.47-9.6-14.91-17.04-17.55a11.37 11.37 0 0 0-2.27-1.73c3.1-2.17 6.12-6 7.7-10.6a3.42 3.42 0 0 0 3.08-3.4 3.41 3.41 0 0 0-1.93-3.06v-.19C94 4842.92 92.74 4835 80 4835c-12.84 0-14.02 7.92-14.02 18.25v.24a3.41 3.41 0 0 0-1.83 3.02 3.42 3.42 0 0 0 3.03 3.38 22.8 22.8 0 0 0 7.8 10.54 11.43 11.43 0 0 0-2.26 1.7c-7.58 2.56-13.87 9.06-17.37 17.65h1.98c2.9-6.72 7.6-12.02 13.27-14.83-.4.78-.7 1.55-.92 2.27a15.97 15.97 0 0 0-.47 6.68l.05.14a3.03 3.03 0 0 0-1.62 3.23 3.05 3.05 0 0 0 3.53 2.47 3.04 3.04 0 0 0 2.47-3.53 3.04 3.04 0 0 0-2.62-2.48.91.91 0 0 0 0-.15c-.01-.02-.49-2.82.41-5.84a9.81 9.81 0 0 1 2.28-4.03c.3-.1.61-.2.92-.28l-.48 1.74a5.7 5.7 0 0 0-.35 1.22 5.84 5.84 0 0 0-.1 1.1 6.3 6.3 0 0 0 6.3 6.28 6.3 6.3 0 0 0 6.3-6.29c0-.37-.03-.74-.1-1.09a6.1 6.1 0 0 0-.43-1.45l-.45-1.46c.36.1.71.21 1.07.33a10.16 10.16 0 0 1 2.4 4.72c-.43.16-.86.37-1.25.65a5.4 5.4 0 0 0-2.24 3.51l-.52 2.92a1.81 1.81 0 0 0-1.16 1.38c-.09.48.02.96.3 1.36a1.81 1.81 0 0 0 1.5.78 1.82 1.82 0 0 0 1.48-2.87c-.09-.13-.2-.24-.32-.34l.52-2.91a3.59 3.59 0 0 1 1.99-2.62 3.59 3.59 0 0 1 1.78-.36 3.6 3.6 0 0 1 2.76 1.53c.55.8.77 1.75.6 2.7l-.52 2.92a1.81 1.81 0 0 0-1.16 1.38 1.8 1.8 0 0 0 .22 1.22 1.81 1.81 0 0 0 1.57.92 1.82 1.82 0 0 0 1.8-1.5 1.81 1.81 0 0 0-.62-1.7l.51-2.92a5.4 5.4 0 0 0-.9-4.06 5.41 5.41 0 0 0-3.52-2.24 5.46 5.46 0 0 0-1.03-.08 12.65 12.65 0 0 0-1.1-3.1c5.55 2.84 10.14 8.07 13 14.68z"/>
  </defs>
  <use transform="translate(-55 -4835)" xlink:href="#a"/>
</svg>