<svg xmlns="http://www.w3.org/2000/svg" xmlns:xlink="http://www.w3.org/1999/xlink" width="35" height="56">
  <defs>
    <path id="a"
          d="M256.3 4888.57c0 .35-.27.62-.62.62h-30.37a.62.62 0 0 1-.62-.62v-42.18c0-.35.28-.62.63-.62h8.12v1.24h-6.88a.62.62 0 0 0-.62.62v39.72c0 .34.28.62.63.62h22.96a.63.63 0 0 0 .45-.19l4.9-5.03a.62.62 0 0 0 .1-.18.62.62 0 0 0 0-.06.62.62 0 0 0 0-.15v-34.73a.62.62 0 0 0-.62-.62h-6.88v-1.24h8.13c.34 0 .62.28.62.62v42.2zm-21.61-44c0-.76.62-1.38 1.39-1.38h8.83c.77 0 1.4.62 1.4 1.38v2.4a1.4 1.4 0 0 1-1.4 1.39h-8.83a1.4 1.4 0 0 1-1.4-1.4zm3.22-5.2a2.6 2.6 0 0 1 2.6-2.6 2.6 2.6 0 0 1 2.6 2.6v2.58h-5.2zm15.9 42.3h-4.28a.62.62 0 0 0-.63.61v4.41h-21.7v-38.44h6.57a2.64 2.64 0 0 0 2.3 1.37h8.85a2.64 2.64 0 0 0 2.3-1.37h6.58zm-3.65 4.14v-2.9h2.8zm5.52-41.29h-8.13a2.64 2.64 0 0 0-2.64-2.56h-.57v-2.6a3.84 3.84 0 0 0-3.85-3.83 3.84 3.84 0 0 0-3.84 3.83v2.58h-.57a2.64 2.64 0 0 0-2.64 2.57h-8.13a1.87 1.87 0 0 0-1.87 1.86v42.22c0 1.03.84 1.87 1.87 1.87h30.37a1.87 1.87 0 0 0 1.87-1.87v-42.2a1.87 1.87 0 0 0-1.87-1.87z"/>
    <path id="b"
          d="M240.5 4840.04a.63.63 0 1 1 .63-.63.63.63 0 0 1-.63.62zm0-2.55a1.87 1.87 0 0 0-1.87 1.87c0 1.03.84 1.86 1.88 1.86a1.87 1.87 0 0 0 1.87-1.86 1.87 1.87 0 0 0-1.88-1.87z"/>
    <path id="c"
          d="M229.58 4878.5c0 .34.28.61.63.61h20.62a.62.62 0 0 0 .63-.62.62.62 0 0 0-.63-.62H230.2a.62.62 0 0 0-.62.62z"/>
    <path id="d"
          d="M246.95 4881.72H230.2a.62.62 0 0 0-.63.62c0 .35.28.62.63.62h16.74a.62.62 0 0 0 .62-.62.62.62 0 0 0-.62-.62z"/>
    <path id="e"
          d="M246.4 4862.82h-4.28a.62.62 0 0 0-.63.62v4.27h-1.97v-4.28a.62.62 0 0 0-.63-.62h-4.28v-1.97h4.28a.62.62 0 0 0 .63-.62v-4.27h1.98v4.27c0 .34.28.62.62.62h4.28v1.98zm.62-3.23h-4.28v-4.26a.62.62 0 0 0-.62-.62h-3.23a.62.62 0 0 0-.62.62v4.26h-4.29a.62.62 0 0 0-.62.63v3.21c0 .35.28.63.62.63h4.29v4.26c0 .34.28.62.62.62h3.23a.62.62 0 0 0 .63-.62v-4.27h4.28a.62.62 0 0 0 .62-.62v-3.21a.62.62 0 0 0-.63-.63z"/>
  </defs>
  <use transform="translate(-223 -4835)" xlink:href="#a"/>
  <use transform="translate(-223 -4835)" xlink:href="#b"/>
  <use transform="translate(-223 -4835)" xlink:href="#c"/>
  <use transform="translate(-223 -4835)" xlink:href="#d"/>
  <use transform="translate(-223 -4835)" xlink:href="#e"/>
</svg>
