<svg xmlns="http://www.w3.org/2000/svg" xmlns:xlink="http://www.w3.org/1999/xlink" width="46" height="56">
  <defs>
    <path id="a" d="M250.33 4680.62l-13.42 12.85-5.98-5.99a1.24 1.24 0 0 0-2.1.56c-.1.44.02.9.35 1.21l6.84 6.85c.47.47 1.24.48 1.73.02l14.3-13.7a1.25 1.25 0 1 0-1.72-1.8zm-10.34-16.4l20.51 9.93v7.62a35.1 35.1 0 0 1-20.5 31.95 35.1 35.1 0 0 1-20.51-31.95v-7.62zm-.19-2.6c-.12.03-.23.06-.34.12l-21.76 10.5a1.25 1.25 0 0 0-.7 1.1v8.43a37.65 37.65 0 0 0 22.5 34.5c.32.14.68.14 1 0a37.65 37.65 0 0 0 22.5-34.5v-8.42a1.25 1.25 0 0 0-.7-1.11l-21.76-10.5a1.24 1.24 0 0 0-.73-.12z"/>
  </defs>
  <use transform="translate(-217 -4661)" xlink:href="#a"/>
</svg>