<svg xmlns="http://www.w3.org/2000/svg" xmlns:xlink="http://www.w3.org/1999/xlink" width="54" height="56">
  <defs>
    <path id="a"
          d="M73.52 4666.08h12.96v3H73.52zm-.92 4.83h14.8c.5 0 .91-.41.91-.92v-4.82a.92.92 0 0 0-.91-.92H72.6a.92.92 0 0 0-.91.92v4.82a.91.91 0 0 0 .92.92z"/>
    <path id="b"
          d="M55.56 4682.3v-7.58h3.27v8.83zm12.85-19.23H91.6c4.27 0 7.74 2.97 7.74 6.62v2.89H60.67v-2.9c0-3.64 3.48-6.61 7.74-6.61zm36.02 19.23l-3.27 1.25v-8.83h3.27zm-5.1 26.7c0 .88-.87 1.6-1.96 1.6h-2.83l-3.9-5.14a.9.9 0 0 0-.72-.37H70.09a.9.9 0 0 0-.73.37l-3.89 5.13h-2.94c-1.02 0-1.86-.71-1.86-1.6v-14.5h38.67v14.5zm-2.94 5.94h-6.23v-2.52h6.23zm-28.63-4.35l2.79-3.67h18.9l2.8 3.67zm2.1 4.34H63.6v-2.5h6.25zm9.23-22.27H60.68v-18.25h18.4zm20.24-18.25v18.25H80.92v-18.25zm-40.48 11.9V4709a3.5 3.5 0 0 0 2.93 3.35v3.5c0 .5.41.9.92.9h8.06c.5 0 .92-.4.92-.9v-3.43h16.64v3.42c0 .5.41.92.92.92h8.06c.5 0 .92-.41.92-.92v-3.51c1.68-.36 2.93-1.71 2.93-3.33v-23.5l4.53-1.72a.92.92 0 0 0 .59-.85v-9.13a.92.92 0 0 0-.91-.91h-4.2v-3.2c0-4.66-4.3-8.45-9.57-8.45H68.4c-5.27 0-9.56 3.79-9.56 8.45v3.2h-4.2a.92.92 0 0 0-.92.91v9.13c0 .38.23.72.59.85l4.53 1.73v.8z"/>
    <path id="c"
          d="M67.27 4701.65a1.36 1.36 0 0 1-1.36-1.35 1.36 1.36 0 1 1 1.36 1.35zm0-4.54a3.19 3.19 0 0 0-3.19 3.19 3.2 3.2 0 0 0 3.19 3.18 3.19 3.19 0 0 0 3.18-3.18 3.19 3.19 0 0 0-3.18-3.19z"/>
    <path id="d"
          d="M92.73 4701.65a1.36 1.36 0 1 1 1.36-1.35 1.36 1.36 0 0 1-1.36 1.35zm0-4.54a3.19 3.19 0 0 0-3.18 3.19 3.19 3.19 0 0 0 3.19 3.18 3.19 3.19 0 0 0 3.18-3.18 3.19 3.19 0 0 0-3.19-3.19z"/>
    <path id="e"
          d="M85.92 4701.28H73.28a.92.92 0 0 0-.91.92c0 .5.41.91.91.91h12.64c.5 0 .92-.4.92-.91a.92.92 0 0 0-.92-.92z"/>
    <path id="f"
          d="M85.92 4697.47H73.28a.92.92 0 0 0-.91.92c0 .5.41.91.91.91h12.64c.5 0 .92-.4.92-.91a.92.92 0 0 0-.92-.92z"/>
  </defs>
  <use transform="translate(-53 -4661)" xlink:href="#a"/>
  <use transform="translate(-53 -4661)" xlink:href="#b"/>
  <use transform="translate(-53 -4661)" xlink:href="#c"/>
  <use transform="translate(-53 -4661)" xlink:href="#d"/>
  <use transform="translate(-53 -4661)" xlink:href="#e"/>
  <use transform="translate(-53 -4661)" xlink:href="#f"/>
</svg>
