<svg xmlns="http://www.w3.org/2000/svg" width="56" height="56" fill="none">
  <path fill="#0C0C0C" fill-rule="evenodd" d="M.12 27.76a27.4 27.4 0 1 1 54.82.01 27.4 27.4 0 0 1-54.82 0zm1.67.12a25.78 25.78 0 0 0 25.73 25.74c14.3 0 25.86-11.68 25.74-25.74A25.78 25.78 0 0 0 27.52 2.14 25.78 25.78 0 0 0 1.8 27.88z" clip-rule="evenodd"/>
  <path fill="#0C0C0C" fill-rule="evenodd" d="M27.52 14.06l10.6-2.15.25.48c.23.24 5.48 7.15 5.48 15.73 0 8.82-10.25 15.73-10.73 15.96l-5.6 3.82-5.6-3.81c-.03-.04-.15-.13-.34-.27-1.85-1.37-10.38-7.7-10.38-15.7 0-8.58 5.24-15.49 5.48-15.73l.24-.48 10.6 2.15zm0 31.81l4.77-3.21c.12 0 10-6.68 9.77-14.54 0-6.91-3.7-12.75-4.77-14.3l-9.89 2.03-9.89-2.03c-1.07 1.55-4.76 7.39-4.76 14.3 0 7.38 8.7 13.6 9.88 14.44l.13.1 4.76 3.21z" clip-rule="evenodd"/>
  <path fill="#0C0C0C" fill-rule="evenodd" d="M33.96 28.83c-.24-.23-.6-.35-1.31-.23.95-1.67 2.02-4.06 1.3-4.77-.35-.36-.95-.48-3.2.6l-.26.1c-.2.1-.45.2-.7.37.35-.47.47-.95.47-1.55 0-.83-1.3-6.07-2.74-6.07-1.43 0-2.74 5.24-2.74 6.07 0 .6.24 1.2.48 1.55a2.37 2.37 0 0 1-.48-.24c-.15-.09-.3-.17-.47-.23-2.27-1.08-2.98-.84-3.22-.6-.72.71.36 3.1 1.31 4.77-.83-.24-1.07 0-1.31.23-.72.72.36 3.22 1.31 4.77-.6-.12-1.07-.12-1.31.12-1.07 1.07 1.67 5.6 2.38 6.31.6.6 1.2.84 1.9.84.72 0 1.44-.24 1.92-.84l.23-.23.24.23c.6.6 1.2.84 1.9.84.72 0 1.44-.24 1.91-.84.6-.6 3.34-5.24 2.39-6.31-.24-.24-.72-.24-1.31-.12.95-1.55 2.02-4.05 1.3-4.77zm-6.2 2.39l-.24.24-.23-.24a1.83 1.83 0 0 0-.72-.48c.24-.12.48-.24.72-.48l.23-.23.24.23c.24.24.48.36.72.48-.36.12-.6.36-.72.48zm2.98-1.9c.72-.72 2.03-3.35 2.26-4.42-1.07.24-3.69 1.55-4.4 2.27-.6.6-.6 1.54 0 2.14.6.6 1.54.6 2.14 0zM27.52 18.7c.6.95 1.55 3.69 1.55 4.64 0 .84-.71 1.55-1.55 1.55-.83 0-1.55-.71-1.55-1.55.12-.95.96-3.69 1.55-4.64zm.48 7.38h-.95c0 .08.04.1.1.14l.14.1.23.24.24-.24c0-.07.05-.1.11-.14a.66.66 0 0 0 .13-.1zm-1.55 1.08c.6.6.6 1.54 0 2.14-.6.6-1.55.6-2.14 0a14.05 14.05 0 0 1-2.27-4.4c1.08.23 3.82 1.54 4.41 2.26zm0 7.14c.6-.6.6-1.54 0-2.14-.6-.71-3.33-2.03-4.4-2.26.23 1.07 1.54 3.69 2.26 4.4.6.6 1.55.6 2.14 0zm0 4.89c-.6.6-1.55.6-2.14 0a14.05 14.05 0 0 1-2.27-4.4c1.08.23 3.7 1.54 4.41 2.26.6.6.6 1.54 0 2.14zm2.15 0c.6.6 1.54.6 2.14 0 .72-.71 2.03-3.34 2.26-4.4-1.07.23-3.69 1.54-4.4 2.26-.6.6-.6 1.54 0 2.14zm-.84-2.98l-.24.24-.23-.24a1.83 1.83 0 0 0-.72-.48c.24-.11.48-.23.72-.47l.23-.24.24.24c.24.24.48.36.72.47-.36.12-.6.36-.72.48zm.84-2.02c.6.6 1.54.6 2.14 0 .72-.6 2.03-3.22 2.26-4.41-1.07.24-3.69 1.55-4.4 2.26-.6.6-.6 1.55 0 2.15z" clip-rule="evenodd"/>
</svg>