<svg xmlns="http://www.w3.org/2000/svg" width="55" height="56" fill="none">
  <path fill="#000" fill-rule="evenodd"
        d="M27.5.62A27.45 27.45 0 0 0 0 28a27.45 27.45 0 0 0 27.5 27.38A27.45 27.45 0 0 0 55 28 27.45 27.45 0 0 0 27.5.62zm-.8 1.63v3.18c-.02 1.09 1.62 1.09 1.6 0V2.25c4.13.13 8.02 1.2 11.44 3.04l-1.6 2.76c-.54.93.86 1.74 1.4.8l1.6-2.75c3.39 2.1 6.26 4.95 8.36 8.32l-2.77 1.6c-.94.53-.13 1.93.8 1.4l2.78-1.6a25.56 25.56 0 0 1 3.05 11.37h-3.21c-1.1-.01-1.1 1.63 0 1.61h3.21a25.56 25.56 0 0 1-3.05 11.38l-2.77-1.6a.81.81 0 0 0-.47-.1c-.8.05-1.05 1.11-.34 1.5l2.77 1.6a25.92 25.92 0 0 1-8.36 8.32l-1.6-2.76a.8.8 0 1 0-1.4.81l1.6 2.76a25.85 25.85 0 0 1-11.43 3.04v-3.18a.8.8 0 1 0-1.62 0v3.18c-4.12-.13-8-1.2-11.43-3.04l1.6-2.76a.8.8 0 0 0-.68-1.22c-.3 0-.57.16-.72.41l-1.6 2.76a25.92 25.92 0 0 1-8.36-8.32l2.77-1.6c.72-.4.45-1.48-.37-1.5a.8.8 0 0 0-.44.1l-2.77 1.6a25.56 25.56 0 0 1-3.05-11.37h3.21c1.1.01 1.1-1.63 0-1.61H1.64c.13-4.11 1.2-7.98 3.05-11.38l2.77 1.6c.94.53 1.75-.86.81-1.4l-2.77-1.6a25.92 25.92 0 0 1 8.36-8.32l1.6 2.76c.54.93 1.94.12 1.4-.8l-1.6-2.77c3.42-1.83 7.3-2.91 11.43-3.04zm.79 9.22a.83.83 0 0 0-.83.84v11.75c-1.82.39-3.2 2.01-3.2 3.94a4.05 4.05 0 0 0 8 .8h9.46c1.1.03 1.1-1.63 0-1.6h-9.46a4.06 4.06 0 0 0-3.12-3.14V12.31a.83.83 0 0 0-.85-.84zm.01 14.11A2.4 2.4 0 0 1 29.93 28a2.4 2.4 0 0 1-2.43 2.42A2.4 2.4 0 0 1 25.07 28a2.4 2.4 0 0 1 2.43-2.42z"
        clip-rule="evenodd"/>
</svg>
