<svg xmlns="http://www.w3.org/2000/svg" width="56" height="54" fill="none">
  <path fill="#000" fill-rule="evenodd" d="M18.17 17.03a4.13 4.13 0 0 1 1.27-5.52 6.46 6.46 0 0 1-1.64-2.05c-1.25-2.45-.37-5.38-.33-5.52a.61.61 0 0 1 1.15-.07c0 .02.86 1.92 2 4.17l.3.58-.03-.17c-.02-.14-.03-.3-.03-.45-.23-2.51-.53-4.6-.53-4.6a.61.61 0 0 1 1.01-.55c.1.08 2.4 2.09 2.66 4.86.06.86-.06 1.71-.34 2.52a4.14 4.14 0 0 1 4.2 4l.5 15.09a1.4 1.4 0 0 1-2.6.75l-7.59-13.04zm8.48-2.74a2.9 2.9 0 0 0-1.23-2.26 2.91 2.91 0 0 0-2.53-.44l-1.94.55A2.92 2.92 0 0 0 19 15.9l1.4-.4a.62.62 0 0 1 .8.74.61.61 0 0 1-.46.44l-1.16.33 1.58 2.74 1.6-.46a.63.63 0 0 1 .8.76.63.63 0 0 1-.44.45l-1.31.37 1.33 2.17a.62.62 0 0 1 .12-.06l1.77-.51a.62.62 0 0 1 .8.74.61.61 0 0 1-.46.44l-1.6.46 3.07 5.35a.17.17 0 0 0 .32-.09l-.43-12.5-1.9.54a.62.62 0 0 1-.8-.74.61.61 0 0 1 .46-.44l2.2-.6-.04-1.33zm-3.88-6.47c.06.92-.1 1.83-.48 2.67l-.2-2.61-.27-2.6c.52.75.84 1.63.95 2.54zm-2.04 3.09a57.37 57.37 0 0 1-1.34-2.53c-.38-.76-.75-1.5-1.05-2.14-.04.92.15 1.83.54 2.66.44.81 1.07 1.5 1.85 2.01zM15.1 20.39a34.34 34.34 0 0 1-2.58-4.36c-1.14-.58-4.2-2.39-5.03-5.37-1-3.63 1.7-7.43 1.8-7.6a.62.62 0 0 1 .75-.23c.23.1 4.46 1.99 5.46 5.6.9 3.26-1.18 6.65-1.7 7.43.68 1.32 1.46 2.6 2.31 3.83l.42.6c.17.29.1.65-.17.84a.62.62 0 0 1-.84-.13l-.42-.61zm-.77-11.63c-.69-2.43-3.25-4-4.31-4.57C9.4 5.22 8 7.9 8.68 10.3c.46 1.65 1.78 2.9 2.92 3.73A34.3 34.3 0 0 1 9.98 9.2l-.17-.7a.62.62 0 0 1 1.2-.3l.17.71c.5 1.93 1.16 3.82 2 5.63.67-1.19 1.76-3.58 1.15-5.78zM7.95 27.31a1.76 1.76 0 0 1-3.08-.3.62.62 0 0 0-1.13.47 2.98 2.98 0 0 0 5.24.5.61.61 0 0 0-.48-.95.62.62 0 0 0-.55.28zM20.13 32.07a2.36 2.36 0 1 1 0-4.71 2.36 2.36 0 0 1 0 4.71zm0-1.22a1.13 1.13 0 1 0 0-2.26 1.13 1.13 0 0 0 0 2.26zM50.5 11.62a2.36 2.36 0 1 1-4.73-.01 2.36 2.36 0 0 1 4.72 0zm-1.24 0a1.13 1.13 0 1 0-1.13 1.13c.62 0 1.13-.51 1.13-1.13zM33.1 7.54a2.36 2.36 0 1 1-4.72-.01 2.36 2.36 0 0 1 4.72 0zm-1.23 0a1.13 1.13 0 1 0-2.26 0 1.13 1.13 0 0 0 2.26 0zM6.75 15.67a2.36 2.36 0 1 1-4.72 0 2.36 2.36 0 0 1 4.72 0zm-1.23 0a1.13 1.13 0 1 0-2.26 0 1.13 1.13 0 0 0 2.26 0zM12.65 40.6a.62.62 0 0 0-1.08.61c.2.34.4.67.62 1 .19.28.57.36.86.17a.61.61 0 0 0 .17-.86c-.2-.3-.39-.6-.57-.92zM19.84 47.25a22.25 22.25 0 0 1-2.54-1.53 17.17 17.17 0 0 1-2.08-1.78l-.24-.22a4.34 4.34 0 0 1-.38-.42.62.62 0 0 0-.87-.07c-.26.22-.29.6-.07.87.15.17.3.34.47.5l.21.21a18.41 18.41 0 0 0 3.68 2.85c.5.3.83.48 1.23.7a.62.62 0 0 0 .94-.58.61.61 0 0 0-.38-.52l.03-.01z" clip-rule="evenodd"/>
  <path fill="#000" fill-rule="evenodd" d="M53.66 12.66a1.68 1.68 0 0 1 1.79 2.45l-2.08 3.78c.82 1.33.9 3 .2 4.4l-5.64 11.07h.68c.34 0 .62.28.62.62 0 11.2-8.86 19.02-21.54 19.02S6.15 46.18 6.15 34.98c0-.34.28-.62.62-.62h2.79L7.8 32.04a3.81 3.81 0 0 1-6.77-3.48 3.78 3.78 0 0 1 4.08-5.81 3.79 3.79 0 0 1 7.36-1.09c.02 0 .04-.02.05-.04l.08-.04a3 3 0 0 1 4.26 3.35 2.98 2.98 0 0 1-2.32 2.22l2.02 6.48c.09.29-.04.6-.31.73h10.08l.09-.22.16-.39a10.01 10.01 0 0 1 4.4-4.58l2.9-1.56a39.22 39.22 0 0 0 9.4-7.04l2.65-2.7a4.72 4.72 0 0 1 2.35-1.34 4.42 4.42 0 0 1 2.42.21l1.79-3.24c.24-.44.67-.75 1.16-.84zM7.65 30.12c.18.02.33.13.43.28l3 3.96h1.74l-2.06-4.11a.61.61 0 0 1 .59-.9c.22.02.42.15.51.34l2.22 4.39 1.18-.62-2.07-6.63a.61.61 0 0 1-.07-.33.61.61 0 0 1 .68-.55c.33.04.67-.03.97-.18a1.75 1.75 0 0 0-.38-3.2c-.68-.2-1.4.03-1.85.58a.62.62 0 0 1-.68.2l-.08-.05a.62.62 0 0 1-.1-.05.61.61 0 0 1-.23-.43 2.57 2.57 0 0 0-4.22-1.83 2.57 2.57 0 0 0-.87 2.54.61.61 0 0 1-.47.73h-.13a.62.62 0 0 1-.33-.06 2.58 2.58 0 0 0-3.24.63c-.79.96-.77 2.35.04 3.3.1.12.15.28.13.44a.84.84 0 0 1-.08.23v.04A2.57 2.57 0 0 0 5 32.8a2.57 2.57 0 0 0 1.96-2.15.62.62 0 0 1 .69-.53zm20.04 22.65c-10.43 0-17.92-5.27-19.83-13.5h39.66c-1.9 8.23-9.4 13.5-19.83 13.5zM7.63 38.05h40.12c.14-.82.22-1.64.25-2.46H7.38c.03.82.12 1.64.25 2.46zm20.06-3.69c0-.03 0-.08.04-.11a8.78 8.78 0 0 1 3.87-3.99l2.86-1.55a40.46 40.46 0 0 0 9.71-7.28l.89-.9 1.04.1c.55.06 1.02.42 1.23.93.36.83 1.1 1.45 1.99 1.64h.1c.46.1.85.43 1.04.87l.62 1.33-4.53 8.96H27.69zm24.43-15.75l2.25-4.1a.45.45 0 0 0-.14-.54.45.45 0 0 0-.68.13l-2.04 3.68a.62.62 0 0 1-.07.08.62.62 0 0 1-.08.1.62.62 0 0 1-.1.06.36.36 0 0 1-.21.07H50.7a3.39 3.39 0 0 0-2.18-.33 3.5 3.5 0 0 0-1.73 1l-.65.67h.11c1 .12 1.84.76 2.23 1.67.2.47.6.8 1.1.91h.1c.85.18 1.57.76 1.93 1.55l.22.46.65-1.28a3.42 3.42 0 0 0-.32-3.49.58.58 0 0 1-.04-.08.62.62 0 0 1-.04-.12v-.24l.03-.12v-.08z" clip-rule="evenodd"/>
  <path fill="#000" fill-rule="evenodd" d="M43.93 23.5c-.95.84-1.94 1.62-2.96 2.36a.61.61 0 0 0 .1 1.07c.2.1.44.06.62-.08a45.95 45.95 0 0 0 3.07-2.42.61.61 0 0 0-.2-1.06.62.62 0 0 0-.61.14h-.02zM36.66 28.54l-2.89 1.53a10.5 10.5 0 0 0-3 2.4.61.61 0 0 0 .34 1.02c.22.04.45-.04.59-.21a9.28 9.28 0 0 1 2.64-2.1l2.89-1.55a.61.61 0 1 0-.58-1.08l.01-.01zM36.49 23.4a.62.62 0 0 1-.8-.18c-.5-.65-4.66-6.47-3.93-9.72a4.6 4.6 0 0 1 2.76-3.43c1.1-.41 2.3-.54 3.47-.36-.56-1.02-1.36-2.95-.92-4.91.62-2.82 3.57-4.49 3.7-4.55a.62.62 0 0 1 .8.17 9.28 9.28 0 0 1 1.4 3.34c.43-.14.88-.23 1.34-.29.32-.03.61.18.67.5v.01c.05.25.52 2.83-.8 4.7a5.72 5.72 0 0 1-2.98 1.94c.74.33 1.4.8 1.96 1.4a4.58 4.58 0 0 1 1.03 4.25c-.74 3.26-6.99 6.74-7.7 7.13zm3.84-13.82c1.1-.2 2.09-.77 2.81-1.6.6-.94.85-2.06.71-3.16-1.09.2-2.08.77-2.81 1.6-.6.94-.84 2.06-.7 3.16zm-2.05-4.51c.37-1.66 1.84-2.88 2.6-3.43.46.8.77 1.68.92 2.6-.69.34-1.29.83-1.76 1.44a5.72 5.72 0 0 0-.96 3.46c-.46-.87-1.15-2.5-.8-4.07zm-3.29 6.15a3.37 3.37 0 0 0-2.03 2.54c-.47 2.13 2.04 6.35 3.38 8.3 2.05-1.2 6.12-3.93 6.62-6.06.31-1.1.04-2.3-.74-3.16a6.46 6.46 0 0 0-3.4-1.74 8.7 8.7 0 0 0-1.9-.23c-.66 0-1.31.1-1.93.35z" clip-rule="evenodd"/>
  <path fill="#000" fill-rule="evenodd" d="M36.44 18.13c-.72-1.6-1-2.86-.82-3.68.12-.56.37-1.09.72-1.53a.61.61 0 0 0-.36-1 .62.62 0 0 0-.58.21c-.49.6-.82 1.3-.98 2.05-.24 1.09.06 2.58.9 4.45a.62.62 0 0 0 1.12-.5z" clip-rule="evenodd"/>
</svg>