<svg xmlns="http://www.w3.org/2000/svg" width="48" height="48" fill="none">
  <path fill="#000" fill-rule="evenodd" d="M44.15 9.05H39.4c.7-1.3.9-2.8.5-4.3A5.98 5.98 0 0 0 35.85.5a6 6 0 0 0-5.75 1.15L24 6.95 17.85 1.7a6.08 6.08 0 0 0-9.8 3.1 6.12 6.12 0 0 0 .5 4.3h-4.7A3.56 3.56 0 0 0 .3 12.65v5.3c0 1.9 1.5 3.45 3.4 3.55v22.7c0 1.95 1.6 3.55 3.55 3.55H40.8c1.95 0 3.55-1.6 3.55-3.55V21.5c1.9-.1 3.4-1.65 3.4-3.55v-5.3c0-2-1.6-3.6-3.6-3.6zm-11.8-4.8c.7-.6 1.65-.8 2.55-.5.9.3 1.55.95 1.8 1.9.2.8.05 1.65-.5 2.3A2.63 2.63 0 0 1 34.1 9h-7.2l5.45-4.75zm-19.2-.5c-.9.3-1.55 1-1.8 1.9-.2.8-.05 1.6.5 2.25.5.65 1.25 1.05 2.1 1.05h7.2l-5.5-4.7a2.5 2.5 0 0 0-2.5-.5zm27.8 29.15L29.5 44.35h-8.15l19.6-19.6v8.15zM8.45 44.35h8.15L39.5 21.5h-8.15L8.45 44.35zM7.05 41v-8.15L18.4 21.5h8.15L7.05 41zm0-19.5v6.6l6.6-6.6h-6.6zm33.7 22.85h-6.5l6.7-6.7v6.5c0 .15-.1.2-.2.2zm3.4-26.2c.1 0 .2-.1.2-.2h.05v-5.3c0-.1-.1-.2-.2-.2H3.85c-.1 0-.2.1-.2.2v5.3c0 .1.1.2.2.2h40.3z" clip-rule="evenodd"/>
</svg>