<svg xmlns="http://www.w3.org/2000/svg" width="28" height="30" fill="none">
  <path fill="#000" fill-rule="evenodd"
        d="M25.12 13.23l2 1.14a.54.54 0 0 1 .03.93l-7.12 4.44 1.58 3.27a.54.54 0 0 1-.6.77l-6.7-1.4v7.02a.54.54 0 1 1-1.09 0v-7.02l-6.7 1.4a.54.54 0 0 1-.6-.77l1.58-3.27L.38 15.3a.54.54 0 0 1 .02-.93l2-1.14-1.05-3.2a.54.54 0 0 1 .64-.7l3.15.76.12-1.8a.54.54 0 0 1 .77-.45L8.9 9.18l-.96-4.35a.54.54 0 0 1 .68-.64l2.4.69L13.27.4a.54.54 0 0 1 .97 0l2.28 4.48 2.39-.69a.54.54 0 0 1 .68.64l-.96 4.35 2.85-1.34a.54.54 0 0 1 .77.45l.13 1.8 3.14-.75a.54.54 0 0 1 .65.7l-1.06 3.2zm-6.28 6.55a.54.54 0 0 1 .2-.7l6.76-4.22-1.6-.9a.54.54 0 0 1-.25-.65l.89-2.69-2.82.68a.54.54 0 0 1-.67-.5l-.11-1.64-3.14 1.47a.54.54 0 0 1-.76-.61l1-4.54-1.94.57a.54.54 0 0 1-.64-.28l-2-3.93-2 3.93a.54.54 0 0 1-.63.28l-1.95-.57 1 4.54a.54.54 0 0 1-.76.6L6.3 9.17l-.12 1.65a.54.54 0 0 1-.66.49l-2.82-.68.89 2.7a.54.54 0 0 1-.25.63l-1.6.91 6.76 4.22c.23.15.32.45.2.7l-1.32 2.71 5.85-1.22v-3.86l-.69-.4v.01l-.02.04-1.03 1.8a.54.54 0 0 1-.94-.54l1.02-1.8a.4.4 0 0 1 .05-.06l-4.47-2.63a.54.54 0 0 1 .55-.93l5.53 3.26v-3.51a.54.54 0 1 1 1.09 0v3.5l5.53-3.25a.54.54 0 0 1 .55.93l-4.47 2.63v.02l.04.04 1.03 1.8a.54.54 0 1 1-.95.53l-1.02-1.79a.28.28 0 0 1-.02-.04v-.01l-.7.4v3.86l5.86 1.22-1.32-2.71z"
        clip-rule="evenodd"/>
</svg>
