<svg xmlns="http://www.w3.org/2000/svg" width="39" height="56" fill="none">
  <path fill="#000" fill-rule="evenodd" d="M24.37 9.66A12.63 12.63 0 0 0 11.7 22.2h1.95c0-5.88 4.79-10.62 10.72-10.62 5.94 0 10.73 4.74 10.73 10.62h1.95c0-6.92-5.69-12.55-12.68-12.55z" clip-rule="evenodd"/>
  <path fill="#000" fill-rule="evenodd" d="M6.83 1.93A6.8 6.8 0 0 0 0 8.7v46.34h1.95V8.7a4.84 4.84 0 0 1 4.88-4.83h11.7c2.7 0 4.87 2.15 4.87 4.83v1.93h1.95V8.7a6.8 6.8 0 0 0-6.83-6.76H6.82z" clip-rule="evenodd"/>
  <path fill="#000" fill-rule="evenodd" d="M11.7 21.24c-.26 0-.5.1-.7.29a.96.96 0 0 0-.28.68l.02 3.86c0 .53.44.96.97.96h25.34a.96.96 0 0 0 .98-.97L38 22.2a.97.97 0 0 0-.98-.96H11.7zm.98 1.93h23.38l.01 1.93H12.7l-.01-1.93zM33.15 29.93v5.8h1.95v-5.8h-1.95zM28.28 29.93v9.66h1.95v-9.66h-1.95zM23.4 29.93v5.8h1.95v-5.8H23.4zM18.53 29.93v9.66h1.95v-9.66h-1.95zM13.65 29.93v5.8h1.95v-5.8h-1.95zM33.15 37.66v1.93h1.95v-1.93h-1.95zM13.65 37.66v1.93h1.95v-1.93h-1.95z" clip-rule="evenodd"/>
</svg>