<svg xmlns="http://www.w3.org/2000/svg" width="60" height="56" fill="none">
  <path fill="#000" fill-rule="evenodd"
        d="M32.6 29.18a15.8 15.8 0 0 1 11.5-4.96c8.74 0 15.85 7.11 15.85 15.85 0 8.74-7.1 15.85-15.85 15.85a15.87 15.87 0 0 1-15.25-20.16 16.4 16.4 0 0 1-12.03 5.25A16.46 16.46 0 0 1 .38 24.57v-.02l-.02-.01.05-.9.05-.98h.03a16.52 16.52 0 0 1 15.44-14.5v-.01-.01c.11-.29 2.6-7 7.73-7.73 3.46-.5 7.13 1.84 10.92 6.96 3.79 5.14 5.7 6.14 6.66 6.08.91-.06 1.61-1.31 2.35-2.64l.01-.03c.21-.37.42-.76.65-1.13C45.3 7.96 45.97 6.85 47 7.3c.95.42.8 1.48-.13 4.64-1.96 6.64-4.7 10.24-8.15 10.7-.25.03-.5.05-.75.05-1.87 0-3.65-.9-5.2-2.1.17.65.3 1.32.38 2h.03l.06 1 .05.88h-.02v.1c0 1.6-.23 3.14-.66 4.6zm.47-20.7c-3.34-4.52-6.42-6.61-9.14-6.22-3.25.47-5.3 4.38-5.97 5.9a16.42 16.42 0 0 1 12.96 7.95c1.9 2.32 4.84 5.03 7.54 4.67 2.95-.4 4.94-4.34 6.19-8.04-.79 1.3-1.75 2.48-3.29 2.58-2.14.14-4.7-1.97-8.3-6.83zm-5.32 6.46c.19.3.77 1.19 1.64 2.27a14.44 14.44 0 0 1 1.9 5.6l-.83.03c-5.18 0-11.59-1.46-12.73-8.37L16.99 10c4.27.05 8.12 1.95 10.76 4.94zM16.6 10h-.13A14.64 14.64 0 0 0 2.36 22.83h.08l.36.02c4.37 0 11.88-1.1 13.08-8.37l.74-4.47h-.01zm.21 29.13c-7.99 0-14.5-6.46-14.57-14.43l.55.01c7.08 0 11.93-2.4 14-6.86 2.03 4.45 6.76 6.86 13.66 6.86h.47l.09-.01h.06l.3-.02a14.58 14.58 0 0 1-14.56 14.45zm13.3.94A14 14 0 0 0 44.1 54.05a14 14 0 0 0 13.98-13.98 14 14 0 0 0-13.04-13.94A4.96 4.96 0 0 0 50 31.05a.94.94 0 0 1 0 1.88 6.84 6.84 0 0 1-6.83-6.8c-.63.04-1.24.12-1.84.24.07.2.07.41 0 .62a4.92 4.92 0 0 0 3.01 6.33.94.94 0 1 1-.63 1.77 6.79 6.79 0 0 1-4.32-8.18 14 14 0 0 0-9.27 13.16z"
        clip-rule="evenodd"/>
  <path fill="#000" fill-rule="evenodd"
        d="M38.36 43.93a5.9 5.9 0 0 0 11.77-.4H38.34c0 .13 0 .27.02.4zM38.09 40.07a1.55 1.55 0 1 0 0-3.1 1.55 1.55 0 0 0 0 3.1zM50.11 40.07a1.55 1.55 0 1 0 0-3.1 1.55 1.55 0 0 0 0 3.1zM10.71 31.96a5.9 5.9 0 0 0 11.77-.4H10.7l.01.4zM10.44 28.1a1.55 1.55 0 1 0 0-3.1 1.55 1.55 0 0 0 0 3.1zM22.47 28.1a1.55 1.55 0 1 0 0-3.1 1.55 1.55 0 0 0 0 3.1z"
        clip-rule="evenodd"/>
</svg>
