<svg xmlns="http://www.w3.org/2000/svg" width="46" height="56" fill="none">
  <path fill="#000" fill-rule="evenodd"
        d="M22.8.62c-.12.02-.23.06-.34.12L.7 11.24c-.43.2-.7.63-.7 1.1v8.43a37.65 37.65 0 0 0 22.5 34.5c.32.13.68.13 1 0A37.65 37.65 0 0 0 46 20.76v-8.42c0-.47-.27-.9-.7-1.11L23.54.74a1.24 1.24 0 0 0-.73-.12zm.2 2.6l20.51 9.92v7.63A35.1 35.1 0 0 1 23 52.7 35.1 35.1 0 0 1 2.49 20.77v-7.63L23 3.23zm10.33 16.4a1.24 1.24 0 1 1 1.71 1.8l-14.3 13.7c-.48.46-1.25.45-1.72-.02l-6.84-6.85a1.25 1.25 0 1 1 1.75-1.77l5.98 6 13.42-12.86z"
        clip-rule="evenodd"/>
</svg>
