<svg xmlns="http://www.w3.org/2000/svg" width="192" height="57" fill="none">
  <path fill="#1A1919" fill-rule="evenodd" d="M17.6 19.22c.73.13 1.92.27 2.76.69 1.03.49.95 2.75 1.22 6 .18 2.17.3 5.29.5 6.14.14.6-.42 1.29-.67.47-.3-1.68-.88-3.81-1.11-5.44a23.06 23.06 0 0 0-.93-3.96c-.13 1.18-.41 3.48-.37 5.41.1 5.59-.32 12.05-.72 17.5-.02.33-.62 2.21-.7-.02l-1.33-14.54c0-.22-.2-.1-.26-.07-.15.07-2.16 12.4-2.43 14.2l-1.07 1.51c.3-5.92.58-13.17 1.3-18.94.37-1.84-.46-5.68-.77-5.31-1.81 2.59-2.35 2.37-6.62 3-.03-.04-1.15-.58-.2-.64 5-1.22 4.32-2.08 6.23-5.2.3-.59 2.44-.9 2.96-1 .29-.04.2-.38.18-.6 0-.34-.34-1.65-.1-2.7.15-.7.65-1.17 1.09-1.18.55 0 1.63.33 1.77 1.23.18 1.22-.74 2.4-.83 2.71-.04.15-.15.68.1.74z" clip-rule="evenodd"/>
  <path fill="#1A1919" fill-rule="evenodd" d="M2.68 1.09C3.94 2.12 6.57 2.75 8.2 2.75 10.3 2.73 13.65.59 15.74.58c1.68 0 2.91 2.02 4.58 2.15 2.14.16 2.93-1.86 5.08-1.98 2.15-.13 3.74.4 6 1.01-1.77 1.4-2.1.95-3.5 4.39-.24.6-.39 2.3-.66 2.66-3.03-.4-3.38 1.3-6.3 2.15-2.09.6-2.15 0-4.08.21-1.94.22-3.76 3.66-7.02 3.55-1.9-.05-2.54-.62-4.5.3l3.51 31.63-.42.46L2.35 1.34c-.06-.4-.03-.53.33-.25z" clip-rule="evenodd"/>
  <path fill="#1A1919" fill-rule="evenodd" d="M14.76 44.79A16.23 16.23 0 0 1 30 55.37c1.38 3.16-3.45-1.66-5.13-3.56-.71-.8-2.21 1.12-3 .52-2.39-1.8-2.5-3.17-4.06-3.1-2 2.67-4.05 4.08-7.14 5.46-2.16.96-3.22-5.08-7.15-1.93-2.07 1.66-4.35 3.01-3.22.81a16.25 16.25 0 0 1 14.46-8.78zM53.51 30.83H44.5V27.8h1.93l-5.1-6.83 5.54-5.86h-2v-2.9h7.53v2.9h-1.5l-5 5.34 5.66 7.35h1.96v3.03zm-10.35 0H34.9V27.8h1.96V15.1H34.9v-2.89h8.26v2.9H41.2v12.7h1.96v3.02zM68.24 20.86c0-1.99-.45-3.57-1.35-4.76a4.19 4.19 0 0 0-3.5-1.77c-1.43 0-2.6.6-3.49 1.77-.9 1.19-1.34 2.77-1.34 4.76 0 1.99.45 3.57 1.34 4.75a4.19 4.19 0 0 0 3.5 1.77c1.4 0 2.55-.6 3.47-1.78.9-1.19 1.37-2.77 1.37-4.74zm5.05.08c0 2.91-.93 5.29-2.78 7.13a9.66 9.66 0 0 1-7.11 2.76 9.6 9.6 0 0 1-7.1-2.8 9.62 9.62 0 0 1-2.79-7.1c0-2.87.93-5.24 2.8-7.1 1.87-1.85 4.29-2.78 7.25-2.78 2.85 0 5.18.92 7 2.76 1.82 1.84 2.73 4.21 2.73 7.13z" clip-rule="evenodd"/>
  <path fill="#1A1919" fill-rule="evenodd" d="M96.55 30.83H88.1V27.8h2V15.1l-5.74 15.73h-1.7L77.04 15.1v12.7h1.93v3.02h-6.84V27.8h2.01V15.1h-2v-2.89h7.82l4.1 11.47 4.2-11.47h8.3v2.9h-2v12.7h2v3.02z" clip-rule="evenodd"/>
  <path fill="#1A1919" fill-rule="evenodd" d="M108.33 21.89L106.3 15l-2.05 6.89h4.07zm8 8.94H108V27.8h2l-1.03-3.49h-5.43l-1 3.5h2.08v3.02h-8.08V27.8h2.05l4.14-12.7h-2.54v-2.89h12.5v2.9h-2.25l4.17 12.7h1.7v3.02z" clip-rule="evenodd"/>
  <path fill="#1A1919" fill-rule="evenodd" d="M136.1 15.1h-2.05v15.73h-4.1l-8.27-14.03.11 11h2.05v3.03h-7.51V27.8h2.05V15.1h-2.05v-2.89h7.38l7.06 12.05-.13-9.15h-2.05v-2.9h7.51v2.9z" clip-rule="evenodd"/>
  <path fill="#1A1919" fill-rule="evenodd" d="M148.52 21.44c0-4.22-1.98-6.33-5.93-6.33h-1.11v12.7h1.5c1.9 0 3.3-.52 4.2-1.55.9-1.02 1.34-2.63 1.34-4.82zm5.03.08c0 2.95-.8 5.24-2.42 6.87-1.62 1.62-3.91 2.44-6.9 2.44h-9.3V27.8h2.05V15.1h-2.04v-2.89h9.3c2.97 0 5.27.82 6.89 2.44 1.61 1.63 2.42 3.92 2.42 6.87zM169.44 20.86c0-1.99-.45-3.57-1.34-4.76a4.19 4.19 0 0 0-3.5-1.77c-1.43 0-2.6.6-3.5 1.77-.89 1.19-1.34 2.77-1.34 4.76 0 1.99.45 3.57 1.35 4.75a4.19 4.19 0 0 0 3.5 1.77c1.4 0 2.55-.6 3.46-1.78.91-1.19 1.37-2.77 1.37-4.74zm5.05.08c0 2.91-.93 5.29-2.78 7.13a9.66 9.66 0 0 1-7.1 2.76 9.6 9.6 0 0 1-7.1-2.8 9.62 9.62 0 0 1-2.8-7.1c0-2.87.94-5.24 2.8-7.1 1.88-1.85 4.3-2.78 7.25-2.78 2.86 0 5.19.92 7 2.76 1.82 1.84 2.73 4.21 2.73 7.13zM185.36 17.38c0-.84-.26-1.42-.77-1.76a4.76 4.76 0 0 0-2.53-.51h-1.3v4.56h1.3c1.15 0 1.99-.17 2.51-.52.53-.35.8-.94.8-1.77zm6.58 13.45h-5.08l-4.12-8.21h-1.98v5.18h1.96v3.03h-8.23V27.8h1.96V15.1h-1.96v-2.89h8.61c2.42 0 4.18.4 5.27 1.2 1.1.8 1.64 2.14 1.64 4.02 0 2.45-1.03 3.93-3.07 4.43l2.94 5.94h2.06v3.03zM44.2 46.32a5.35 5.35 0 0 1-5.08 3.12A5.38 5.38 0 0 1 35.23 48c-1-.95-1.5-2.22-1.5-3.8 0-1.53.48-2.79 1.44-3.77a4.86 4.86 0 0 1 3.63-1.46c1.2 0 2.2.38 2.96 1.13v-.9h2.17v4.1h-2.29c-.4-1.26-1.2-1.88-2.42-1.88-.73 0-1.3.23-1.72.7-.42.48-.63 1.17-.63 2.06 0 1.88.8 2.81 2.4 2.81 1.16 0 2-.62 2.55-1.86l2.38 1.2zM52.63 46.5v-1.14a2.79 2.79 0 0 0-1.67-.62c-.95 0-1.43.46-1.43 1.38 0 .38.1.69.32.93.21.25.5.37.85.37.59 0 1.23-.3 1.93-.93zM57 49.15h-4.37v-.68c-.83.64-1.8.96-2.9.96-.97 0-1.74-.28-2.32-.84a3.02 3.02 0 0 1-.88-2.28c0-1.06.33-1.9.97-2.54a3.58 3.58 0 0 1 2.63-.96c.75 0 1.59.19 2.5.55v-.6c0-1.27-.58-1.9-1.73-1.9-.82 0-1.46.3-1.9.9l-2.23-.47c.19-.7.65-1.27 1.38-1.7a5.62 5.62 0 0 1 2.83-.63c1.7 0 2.9.29 3.62.86.71.57 1.07 1.57 1.07 3v4.14H57v2.2zM74.45 49.44h-4.46v-6.2c0-1.16-.38-1.74-1.13-1.74-.54 0-1.07.23-1.59.7v4.93h1.36v2.3h-4.46v-6.18c0-1.17-.37-1.75-1.11-1.75-.27 0-.54.05-.8.16s-.53.3-.8.54v4.93h1.36v2.3H57v-2.3h1.36v-5.9H57v-2.26h4.46v1.05a7.5 7.5 0 0 1 1.5-.8c.47-.16.94-.25 1.4-.25 1.1 0 1.9.4 2.39 1.21.69-.4 1.32-.7 1.88-.9.57-.2 1.09-.31 1.56-.31 1.94 0 2.9 1.17 2.9 3.5v4.66h1.36v2.3zM84.15 44.33c0-.99-.19-1.74-.57-2.27-.38-.52-.9-.78-1.56-.78s-1.17.27-1.54.8a3.88 3.88 0 0 0-.56 2.25c0 .94.19 1.69.57 2.23.38.54.89.81 1.53.81.65 0 1.17-.26 1.55-.8.39-.53.58-1.28.58-2.24zm3.1.2c0 1.58-.4 2.85-1.17 3.8a3.74 3.74 0 0 1-3.05 1.44 3.66 3.66 0 0 1-3.11-1.67v2.52h1.31v2.3h-5.62v-2.3h1.31v-9.34h-1.3v-2.31h4.3v1.49c.89-1 1.9-1.5 3.02-1.5 1.24 0 2.26.52 3.08 1.54a6.27 6.27 0 0 1 1.22 4.03z" clip-rule="evenodd"/>
</svg>