<svg xmlns="http://www.w3.org/2000/svg" width="52" height="56" fill="none">
  <path fill="#000" fill-rule="evenodd" d="M24.36 18.67v1.86a3.74 3.74 0 0 1-7.5 0v-1.86h7.5zm-3.75 3.73c1.04 0 1.88-.84 1.88-1.87h-3.75c0 1.03.84 1.87 1.87 1.87zM24.36 15.87a.94.94 0 0 1 1.87 0v.93h1.88v-.93a2.8 2.8 0 0 0-5.62 0v.93h1.87v-.93zM16.86 16.8h1.88v-.93a2.8 2.8 0 0 0-5.62 0v.93h1.87v-.93a.94.94 0 0 1 1.87 0v.93zM19.95 40.8l.14.1.17.1a.6.6 0 0 0 .17.05l.18.02.18-.02.18-.06a.73.73 0 0 0 .17-.08l.14-.11a.94.94 0 0 0 0-1.33l-.14-.11a.73.73 0 0 0-.17-.09.57.57 0 0 0-.18-.05.8.8 0 0 0-.53.05.73.73 0 0 0-.17.09l-.14.11a.97.97 0 0 0-.27.66.96.96 0 0 0 .27.66zM21.14 43.1a.73.73 0 0 0-.17-.1.57.57 0 0 0-.18-.05.8.8 0 0 0-.53.06.73.73 0 0 0-.17.08l-.14.11a.96.96 0 0 0-.2.31.78.78 0 0 0-.07.36c0 .24.1.48.27.66l.14.11c.05.04.1.06.17.09a.6.6 0 0 0 .17.05l.18.02c.06 0 .12 0 .18-.02.06 0 .12-.03.18-.05a.73.73 0 0 0 .17-.09l.14-.11a.94.94 0 0 0 0-1.33l-.14-.1zM21.14 46.82a.73.73 0 0 0-.17-.08.57.57 0 0 0-.18-.06 1.2 1.2 0 0 0-.36 0 .6.6 0 0 0-.17.06.73.73 0 0 0-.17.08l-.14.12c-.08.09-.15.2-.2.3a.78.78 0 0 0-.07.36c0 .25.1.48.27.66l.14.11c.05.04.1.07.17.09a.6.6 0 0 0 .17.05l.18.02c.06 0 .12 0 .18-.02.06 0 .12-.02.18-.05a.73.73 0 0 0 .17-.09l.14-.1a.94.94 0 0 0 0-1.33l-.14-.12zM21.28 50.67l-.14-.11a.72.72 0 0 0-.17-.09.57.57 0 0 0-.18-.05.8.8 0 0 0-.53.05.73.73 0 0 0-.17.09l-.14.11a.87.87 0 0 0-.2.3.78.78 0 0 0-.07.36l.01.19a.6.6 0 0 0 .06.17.7.7 0 0 0 .09.17l.1.14.15.1.17.1a.6.6 0 0 0 .17.05l.18.02.18-.02.18-.06a.73.73 0 0 0 .17-.08l.14-.11.11-.14.09-.17.05-.17.02-.19a.93.93 0 0 0-.07-.35.87.87 0 0 0-.2-.3z" clip-rule="evenodd"/>
  <path fill="#000" fill-rule="evenodd" d="M46.85 14.13a3.74 3.74 0 0 0-2.81 3.6V30.8c0 .52-.42.93-.94.93h-3.75v-.93a.94.94 0 0 0-.94-.93H25.3v-2.9a11.22 11.22 0 0 0 6.39-8.3h1.1a2.8 2.8 0 1 0 0-5.6h-.93V11.2h6.55a.94.94 0 1 0 0-1.87h-6.55V4.67c0-2.58-2.1-4.67-4.69-4.67H14.05a4.68 4.68 0 0 0-4.68 4.67v4.66H2.8a.94.94 0 1 0 0 1.87h6.56v1.87h-.94a2.8 2.8 0 1 0 0 5.6h1.1a11.22 11.22 0 0 0 6.4 8.3v2.9H6.56A6.55 6.55 0 0 0 0 36.4V42c0 .52.42.93.94.93h.93v12.14c0 .51.42.93.94.93H32.8c.52 0 .94-.42.94-.93v-14h4.68c.52 0 .94-.42.94-.94v-.93h5.62a6.55 6.55 0 0 0 6.56-6.53V17.73c0-1.7-1.16-3.17-2.8-3.6h-1.88zM18.74 37.72l1.87-1.87 1.88 1.87v16.41h-3.75V37.72zm3.2-3.19l1.48 1.48 4.3-4.28h-2.97l-2.81 2.8zm10.85-19.6a.94.94 0 1 1 0 1.87h-.93v-1.87h.93zm-16-13.06a6.55 6.55 0 0 1-5.55 5.52v1.94h18.74V7.4a6.55 6.55 0 0 1-5.54-5.52h-7.65zm13.2 2.8v.84a4.7 4.7 0 0 1-3.66-3.64h.84a2.8 2.8 0 0 1 2.81 2.8zm-15.1-2.8h-.84a2.8 2.8 0 0 0-2.8 2.8v.84a4.7 4.7 0 0 0 3.65-3.64zM8.44 16.8a.94.94 0 1 1 0-1.87h.94v1.87h-.94zm2.81-5.6v5.6c0 5.15 4.2 9.33 9.37 9.33a9.35 9.35 0 0 0 9.37-9.33v-5.6H11.24zM20.61 28c.95 0 1.9-.13 2.81-.37v2.78l-2.8 2.8-2.82-2.8v-2.78c.92.24 1.86.37 2.81.37zm-1.32 6.53l-2.81-2.8H13.5l4.3 4.28 1.48-1.48zm-11.8 8.4v11.2H3.76v-11.2H7.5zm.94-5.6c.52 0 .94.42.94.94v15.86h7.5V37.72l-6.01-5.99h-4.3a4.68 4.68 0 0 0-4.69 4.67v4.67H7.5v-2.8c0-.52.41-.94.93-.94zm29.05 1.87h-4.69a.94.94 0 0 0-.93.93v14h-7.5V37.72l6.01-5.99h7.1v7.47zm12.18-6.53V17.73a1.87 1.87 0 0 0-3.75 0V30.8a2.8 2.8 0 0 1-2.81 2.8h-3.75v3.73h5.62c2.59 0 4.68-2.09 4.69-4.66z" clip-rule="evenodd"/>
</svg>