<svg xmlns="http://www.w3.org/2000/svg" width="48" height="56" fill="none">
  <path fill="#000" fill-rule="evenodd" d="M23.85 20.84c4 0 7.25 3.22 7.25 7.17a7.22 7.22 0 0 1-7.25 7.18c-4 0-7.25-3.22-7.25-7.18a7.22 7.22 0 0 1 7.25-7.17zM18.02 28a5.81 5.81 0 0 0 5.83 5.78A5.81 5.81 0 0 0 29.7 28a5.81 5.81 0 0 0-5.84-5.77A5.81 5.81 0 0 0 18.02 28z" clip-rule="evenodd"/>
  <path fill="#000" fill-rule="evenodd" d="M20.97 41.18c-5.5-.81-10.34-3.74-13.61-6.27a43.35 43.35 0 0 1-6.8-6.46.7.7 0 0 1 0-.88c.11-.13 2.66-3.27 6.8-6.46 3.82-2.95 9.76-6.45 16.41-6.5h.12c6.7 0 12.7 3.54 16.54 6.5a43.33 43.33 0 0 1 6.8 6.46c.2.26.2.62 0 .88-.12.13-2.66 3.27-6.8 6.46-3.32 2.56-8.24 5.54-13.83 6.3a13.72 13.72 0 0 1-5.63-.03zm2.83-25.16a12.12 12.12 0 0 0-12.11 12.03c0 5.76 4.1 10.59 9.58 11.76a18.55 18.55 0 0 0 5.07.03 12.1 12.1 0 0 0 9.68-11.79c0-6.63-5.45-12.03-12.15-12.04h-.07zm21.95 12c-1.33 1.51-6.1 6.65-12.48 9.69a13.33 13.33 0 0 0-.18-19.48c6.46 3.03 11.32 8.25 12.66 9.78zm-35.48.03c0-3.84 1.65-7.3 4.26-9.75-6.38 3.04-11.16 8.19-12.49 9.71 1.31 1.5 6 6.56 12.28 9.6a13.33 13.33 0 0 1-4.05-9.56zM38.47 51.24l-3.77-6.47a.7.7 0 0 0-.96-.25.7.7 0 0 0-.26.95l3.77 6.47a.7.7 0 0 0 .96.26.7.7 0 0 0 .26-.96zM24.81 55.3v-7.47a.7.7 0 0 0-.7-.7.7.7 0 0 0-.71.7v7.47a.7.7 0 0 0 1.41 0zM10.33 52.4a.7.7 0 0 0 .6-.35l3.77-6.47a.7.7 0 0 0-.26-.96.7.7 0 0 0-.96.26l-3.76 6.47a.7.7 0 0 0 .6 1.05zM13.3 11.23a.7.7 0 0 0 .96.25.7.7 0 0 0 .26-.95l-3.76-6.47a.7.7 0 0 0-.97-.26.7.7 0 0 0-.26.96l3.77 6.47zM23.9 8.87a.7.7 0 0 0 .7-.7V.7a.7.7 0 0 0-.7-.7.7.7 0 0 0-.71.7v7.47c0 .38.31.7.7.7zM33.55 11.38a.7.7 0 0 0 .97-.26l3.76-6.47a.7.7 0 0 0-.26-.95.7.7 0 0 0-.96.25l-3.76 6.47a.7.7 0 0 0 .25.96z" clip-rule="evenodd"/>
</svg>