<svg xmlns="http://www.w3.org/2000/svg" xmlns:xlink="http://www.w3.org/1999/xlink" width="48" height="48">
  <defs>
    <path id="a" d="M1269 9301.59l-5 5V9317h-9v-15.59l6.88-6.87a1.83 1.83 0 0 1 2.58 2.58l-4.17 4.17 1.42 1.42 4.17-4.17a3.8 3.8 0 0 0 1.12-2.71c0-1.45-.81-2.71-2-3.36V9279a2 2 0 0 1 4 0zm-2-26.59a4 4 0 0 0-4 4v13a3.8 3.8 0 0 0-2.54 1.12l-7.46 7.47V9319h13v-11.59l5-5V9279a4 4 0 0 0-4-4z"/>
    <path id="b" d="M1225 9301.59V9279a2 2 0 0 1 4 0v13.47c-1.19.65-2 1.91-2 3.36a3.8 3.8 0 0 0 1.12 2.7l4.17 4.18 1.42-1.42-4.17-4.17a1.83 1.83 0 0 1 2.58-2.58l6.88 6.87V9317h-9v-10.41zm3 17.41h13v-18.41l-7.46-7.47a3.8 3.8 0 0 0-2.54-1.12v-13a4 4 0 0 0-8 0v23.41l5 5z"/>
    <path id="c" d="M1256 9279v6h-6v6h-6v-6h-6v-6h6v-6h6v6zm-14-8v6h-6v10h6v6h10v-6h6v-10h-6v-6z"/>
  </defs>
  <use transform="translate(-1223 -9271)" xlink:href="#a"/>
  <use transform="translate(-1223 -9271)" xlink:href="#b"/>
  <use transform="translate(-1223 -9271)" xlink:href="#c"/>
</svg>