<svg xmlns="http://www.w3.org/2000/svg" xmlns:xlink="http://www.w3.org/1999/xlink" width="48" height="56">
  <defs>
    <path id="a"
          d="M826.85 9555.79a5.81 5.81 0 0 1-5.84-5.78 5.81 5.81 0 0 1 5.84-5.77 5.81 5.81 0 0 1 5.83 5.78 5.81 5.81 0 0 1-5.83 5.77zm7.24-5.78a7.22 7.22 0 0 0-7.24-7.17c-4 0-7.25 3.22-7.25 7.18s3.25 7.17 7.25 7.17 7.24-3.22 7.24-7.17z"/>
    <path id="b"
          d="M817.53 9540.3a13.33 13.33 0 0 0-.2 19.31c-6.29-3.05-10.98-8.1-12.3-9.6 1.34-1.53 6.11-6.67 12.5-9.7zm31.2 9.7c-1.32 1.53-6.09 6.67-12.46 9.7a13.33 13.33 0 0 0-.18-19.47c6.46 3.02 11.3 8.24 12.64 9.78zm-34.05.05c0-6.62 5.43-12 12.12-12.04h.06c6.7 0 12.15 5.4 12.15 12.04 0 5.8-4.16 10.65-9.68 11.79a18.52 18.52 0 0 1-2.44.17c-.89 0-1.76-.08-2.62-.2-5.47-1.17-9.59-6-9.59-11.76zm-4.33 6.86c3.28 2.52 8.12 5.46 13.62 6.27a13.68 13.68 0 0 0 5.63.03c5.59-.76 10.5-3.74 13.83-6.3a43.43 43.43 0 0 0 6.79-6.46.7.7 0 0 0 0-.88c-.1-.13-2.65-3.27-6.8-6.46-3.84-2.97-9.83-6.5-16.53-6.5h-.12c-6.65.05-12.6 3.55-16.42 6.5a43.33 43.33 0 0 0-6.79 6.46.7.7 0 0 0 0 .88c.11.13 2.65 3.27 6.8 6.46z"/>
    <path id="c"
          d="M841.47 9573.24l-3.76-6.47a.71.71 0 0 0-.97-.26.7.7 0 0 0-.26.96l3.77 6.47a.7.7 0 0 0 .96.25.7.7 0 0 0 .26-.95z"/>
    <path id="d" d="M827.81 9577.3v-7.47a.7.7 0 0 0-.7-.7.7.7 0 0 0-.71.7v7.47a.7.7 0 0 0 1.41 0z"/>
    <path id="e"
          d="M813.33 9574.4a.7.7 0 0 0 .6-.35l3.77-6.47a.7.7 0 0 0-.26-.96.7.7 0 0 0-.96.26l-3.77 6.47a.7.7 0 0 0 .26.95.7.7 0 0 0 .35.1z"/>
    <path id="f"
          d="M816.3 9533.23a.7.7 0 0 0 .96.25.7.7 0 0 0 .26-.95l-3.76-6.47a.71.71 0 0 0-.97-.26.7.7 0 0 0-.25.96z"/>
    <path id="g" d="M826.9 9530.87a.7.7 0 0 0 .7-.7v-7.47a.7.7 0 0 0-.7-.7.7.7 0 0 0-.71.7v7.47c0 .38.32.7.7.7z"/>
    <path id="h"
          d="M836.55 9533.37a.7.7 0 0 0 .97-.25l3.76-6.47a.7.7 0 0 0-.26-.96.7.7 0 0 0-.96.26l-3.76 6.47a.7.7 0 0 0 .25.95z"/>
  </defs>
  <use transform="translate(-803 -9522)" xlink:href="#a"/>
  <use transform="translate(-803 -9522)" xlink:href="#b"/>
  <use transform="translate(-803 -9522)" xlink:href="#c"/>
  <use transform="translate(-803 -9522)" xlink:href="#d"/>
  <use transform="translate(-803 -9522)" xlink:href="#e"/>
  <use transform="translate(-803 -9522)" xlink:href="#f"/>
  <use transform="translate(-803 -9522)" xlink:href="#g"/>
  <use transform="translate(-803 -9522)" xlink:href="#h"/>
</svg>
