<svg xmlns="http://www.w3.org/2000/svg" xmlns:xlink="http://www.w3.org/1999/xlink" width="56" height="56">
  <defs>
    <path id="a"
          d="M1021.25 9267.3a2.2 2.2 0 0 1 3.1-.36c.48.37.77.9.84 1.48l.2 1.81a2.22 2.22 0 0 1-1.93 2.46 2.22 2.22 0 0 1-2.46-1.95l-.21-1.81a2.2 2.2 0 0 1 .46-1.63zm14.8 36.22v1.51a2.14 2.14 0 0 1-2.13 2.14h-1.27a2.14 2.14 0 0 1-2.14-2.14v-1.6a19.73 19.73 0 0 0 3.08.25c.82 0 1.65-.06 2.46-.16zm9.96-32.83a2.22 2.22 0 0 1-2.45 1.95 2.22 2.22 0 0 1-1.95-2.46l.21-1.82a2.2 2.2 0 0 1 .83-1.48 2.2 2.2 0 0 1 1.63-.46 2.22 2.22 0 0 1 1.94 2.46zm22.55 39.8a3.73 3.73 0 0 1-3.72 3.73 3.73 3.73 0 0 1-3.73-3.73 3.73 3.73 0 0 1 3.73-3.72 3.73 3.73 0 0 1 3.72 3.72zm-48.81-12.53a19.45 19.45 0 0 0 9.36 5.2v1.87a3.54 3.54 0 0 0 3.49 3.54v3.85a8.6 8.6 0 0 0 17.17 0v-6.72a7.19 7.19 0 0 1 14.36-.27 5.14 5.14 0 0 0-4.43 5.07 5.14 5.14 0 0 0 5.14 5.13 5.14 5.14 0 0 0 5.13-5.13c0-2.6-1.94-4.75-4.45-5.08a8.59 8.59 0 0 0-17.15.28v6.71a7.2 7.2 0 0 1-14.37 0v-3.85a3.54 3.54 0 0 0 3.45-3.53v-1.74a19.45 19.45 0 0 0 9.98-5.33 19.6 19.6 0 0 0 .04-27.64l.15-1.28a3.62 3.62 0 0 0-3.18-4.02 3.6 3.6 0 0 0-2.66.76 3.6 3.6 0 0 0-1.35 2.42l-.21 1.82a3.62 3.62 0 0 0 3.6 4.04 3.62 3.62 0 0 0 3.26-2.1 18.2 18.2 0 0 1-.64 25 18.2 18.2 0 0 1-25.7 0 18.2 18.2 0 0 1-.77-24.86 3.62 3.62 0 0 0 3.65 1.99 3.62 3.62 0 0 0 3.18-4.02l-.21-1.81a3.6 3.6 0 0 0-1.36-2.42 3.6 3.6 0 0 0-2.66-.76 3.6 3.6 0 0 0-2.42 1.35 3.59 3.59 0 0 0-.75 2.67l.16 1.38a19.6 19.6 0 0 0 .19 27.48z"/>
  </defs>
  <use transform="translate(-1014 -9265)" xlink:href="#a"/>
</svg>
