<svg xmlns="http://www.w3.org/2000/svg" xmlns:xlink="http://www.w3.org/1999/xlink" width="78" height="90">
  <defs>
    <path id="a" d="M169.12 13672.75a3.27 3.27 0 0 0 0 6.54 3.27 3.27 0 0 0 3.27-3.27 3.27 3.27 0 0 0-3.27-3.27z"/>
    <path id="b" d="M183.76 13695.38c-.7.78-1.8 1.04-3.67 1.43-1.5.32-3.2.67-5 1.53l-.45.2-.3.39a29.69 29.69 0 0 1-9.55 7.53l-1.4.72 1.43 9.45h-11.3l-2.93-6.35-1.44.03a39.04 39.04 0 0 1-5.76-.28l-1.58-.2-3.13 6.8h-11.3l1.74-11.52-1.13-.77c-7.07-4.84-11.13-11.9-11.13-19.36 0-13.98 14.05-25.35 31.33-25.35 2.67 0 5.32.28 7.9.82l1.28.27.84-1c3.52-4.19 7.58-6.31 12.05-6.31 2.12 0 3.93.48 5.18.94l-5.87 12.07 1.3 1.1a24.5 24.5 0 0 1 7.73 11.37l.35 1.12 1.64.48c3.22.92 4.55 1.3 4.55 8.28 0 3.37-.46 5.6-1.38 6.61zm-1.37-18.9a28.68 28.68 0 0 0-7.43-11.15l4.94-10.2c.38-.75.42-1.66.15-2.46a3.12 3.12 0 0 0-1.62-1.8 19.57 19.57 0 0 0-8.16-1.82c-3.8 0-9.31 1.23-14.53 6.9a42.8 42.8 0 0 0-7.55-.68c-11.24 0-21.28 4.36-27.82 11.14-.7-.61-1.1-1.21-1.16-1.73-.08-.81.7-1.74 1.36-2.37a2.18 2.18 0 1 0-3-3.16l-.04.03s0 .02-.02.02c-1.97 1.9-2.85 3.9-2.63 5.95.18 1.67 1.08 3.22 2.68 4.6a25.9 25.9 0 0 0-5.06 15.23c0 8.52 4.32 16.53 11.91 22.17l-1.48 9.72a3.6 3.6 0 0 0 .81 2.9 3.59 3.59 0 0 0 2.74 1.23h12.45c1.47 0 3-.97 3.6-2.31l1.92-4.16c1.12.1 2.25.15 3.37.16l1.84 4a4.14 4.14 0 0 0 3.61 2.3h12.45a3.6 3.6 0 0 0 2.74-1.22 3.6 3.6 0 0 0 .81-2.9l-1.1-7.26c3.56-2 6.72-4.59 9.2-7.51 1.2-.52 2.43-.77 3.61-1.02 5-1.04 8.52-2.53 8.52-12.3 0-9.14-2.79-11-7.1-12.3z"/>
    <path id="c" d="M156.92 13664.17h-.02a42.74 42.74 0 0 0-17.44 0h-.01a1.82 1.82 0 0 0-1.44 1.78 1.81 1.81 0 0 0 2.19 1.77 39.14 39.14 0 0 1 15.97 0 1.81 1.81 0 0 0 2.19-1.77 1.82 1.82 0 0 0-1.44-1.78z"/>
    <path id="d" d="M148.18 13635.26a6.4 6.4 0 0 1 0 12.78 6.4 6.4 0 0 1 0-12.78zm0 17.03a10.66 10.66 0 0 0 0-21.29 10.66 10.66 0 0 0 0 21.29z"/>
  </defs>
  <use transform="translate(-112 -13631)" xlink:href="#a"/>
  <use transform="translate(-112 -13631)" xlink:href="#b"/>
  <use transform="translate(-112 -13631)" xlink:href="#c"/>
  <use transform="translate(-112 -13631)" xlink:href="#d"/>
</svg>