<svg xmlns="http://www.w3.org/2000/svg" width="57" height="49" fill="none">
  <path stroke="#000" stroke-width="2" d="M46 6a5 5 0 1 0-10 0 5 5 0 0 0 10 0zM2 48h45a4 4 0 0 0 4-4c0-.82-.93-1.3-1.58-.81-.68.5-1.51.81-2.42.81H2a1 1 0 0 0-1 1v2a1 1 0 0 0 1 1z" clip-rule="evenodd"/>
  <path stroke="#000" stroke-width="2" d="M32.83 9.68a4.51 4.51 0 0 0-4.35-1.07A856.78 856.78 0 0 0 15 13c-1.89.67-5 3-5 6s1.98 4.85 4 6c2.4 1.36 9.5 4.9 9.5 4.9l-4.7 7.98a4.07 4.07 0 0 0 .7 5.07 4 4 0 0 0 6.15-.92l8.1-13.52L21 21l12-3 7 6 14.54-4.21a2.37 2.37 0 0 0 1.28-3.1l-.08-.18a2.43 2.43 0 0 0-3.17-1.32L43 18 32.83 9.68z" clip-rule="evenodd"/>
</svg>