<svg xmlns="http://www.w3.org/2000/svg" width="47" height="47" fill="none">
  <path fill="#000" fill-rule="evenodd" d="M16.79 8.95A7.84 7.84 0 1 1 1.1 8.94a7.84 7.84 0 0 1 15.69.01zm-2.24 0a5.6 5.6 0 1 0-11.2.02 5.6 5.6 0 0 0 11.2-.02zM30.21 11.2a5.6 5.6 0 1 1-11.2-.02 5.6 5.6 0 0 1 11.2.01zm-2.23 0a3.36 3.36 0 1 0-6.73 0 3.36 3.36 0 0 0 6.73 0zM44.26 23.62a1.12 1.12 0 0 1 1.62 1v15.67c0 .38-.2.74-.53.95-.33.2-.74.22-1.09.05l-7.33-3.67v2.67a5.6 5.6 0 0 1-5.6 5.6H6.71a5.6 5.6 0 0 1-5.6-5.6V24.62a5.6 5.6 0 0 1 5.6-5.6h24.62a5.6 5.6 0 0 1 5.6 5.6v2.66l7.33-3.66zm-.62 14.85zm0 0V26.43l-7.33 3.67c-.35.17-.76.15-1.09-.05-.33-.2-.53-.57-.53-.95v-4.48c0-1.85-1.5-3.36-3.36-3.36H6.71a3.36 3.36 0 0 0-3.35 3.36v15.67c0 1.85 1.5 3.35 3.35 3.35h24.62c1.85 0 3.36-1.5 3.36-3.35V35.8c0-.39.2-.75.53-.96.33-.2.74-.22 1.1-.04l7.32 3.66z" clip-rule="evenodd"/>
</svg>