<svg xmlns="http://www.w3.org/2000/svg" width="54" height="52" fill="none">
  <path fill="#000" fill-rule="evenodd" d="M11.45 10.52a5.25 5.25 0 1 0 0-10.52 5.25 5.25 0 0 0-5.23 5.26c0 2.9 2.35 5.26 5.23 5.26zM52.8 49.6H7.2l-5.26-4.35a1.19 1.19 0 0 0-1.68.17 1.2 1.2 0 0 0 .17 1.7l5.6 4.6c.21.18.48.28.75.28h46.02c.66 0 1.19-.54 1.19-1.2 0-.66-.53-1.2-1.2-1.2zM14.88 5.26c0-1.9-1.54-3.46-3.43-3.46A3.45 3.45 0 0 0 8 5.26c0 1.9 1.54 3.46 3.44 3.46 1.89 0 3.43-1.55 3.43-3.46zM5.17 29.15a3.16 3.16 0 0 0 4.45-.78l1.44-2.06 9.44-4.42.97.71-8.62 5.53a3.22 3.22 0 0 0-1.38 3.5l3.7 14.64a3.2 3.2 0 1 0 6.2-1.6l-3.14-12.36.84-.54 6.04 14.95a3.18 3.18 0 0 0 4.17 1.77 3.23 3.23 0 0 0 1.75-4.2L25.1 29.57c2.68-1.13 7.32-3.14 8.2-3.98.39-.35.69-.78.86-1.26a5.24 5.24 0 0 0-1.58-6.54l-1.29-.95L49.3 8.4l.78 1.7a.9.9 0 1 0 1.63-.76l-.79-1.7 2.3-1.08a.9.9 0 0 0 .43-1.2.9.9 0 0 0-1.2-.43L50.18 6l-.8-1.75a.9.9 0 0 0-1.2-.44.9.9 0 0 0-.43 1.2l.8 1.75-18.9 8.86-8.1-5.98a5.14 5.14 0 0 0-6.95.7v.01c-.37.45-1.92 2.57-10.2 14.31a3.21 3.21 0 0 0 .78 4.49zM16.32 18.8l-3.19 4.56 5.73-2.69-2.54-1.87zm15.19.44a3.44 3.44 0 0 1 .98 4.43 1.43 1.43 0 0 1-.46.64c-.53.5-4.71 2.39-8.45 3.94a.9.9 0 0 0-.49 1.17l6.29 15.55c.29.73-.06 1.55-.78 1.85-.7.29-1.55-.08-1.83-.78l-6.44-15.95a.9.9 0 0 0-1.31-.42l-2.3 1.47a.9.9 0 0 0-.38.98l3.3 13c.19.76-.27 1.53-1.02 1.73-.74.2-1.52-.28-1.7-1.03L13.2 31.2c-.15-.6.1-1.21.6-1.54l9.74-6.23a.9.9 0 0 0 .05-1.49l-1.23-.9 7.07-3.32 2.08 1.53zm-15.6-7.67c-.5.62-6.27 8.76-10.05 14.13-.45.64-.3 1.52.34 1.97.61.44 1.53.27 1.96-.34l7.22-10.32a.9.9 0 0 1 1.26-.2l4.07 3 7.07-3.32-7.3-5.4a3.42 3.42 0 0 0-4.56.46l-.02.02z" clip-rule="evenodd"/>
</svg>