<svg xmlns="http://www.w3.org/2000/svg" width="17" height="30" fill="none">
  <path fill="#000" fill-rule="evenodd" d="M16.26 17c.7.7.33 4.01-1.72 6.06a7.27 7.27 0 0 1-4.79 2.09c-.28 0-.51-.03-.72-.08v4.58h-1v-4.61c-.2.06-.43.09-.71.09a7.43 7.43 0 0 1-4.88-2.16 7.57 7.57 0 0 1-1.92-3.53C.3 18.53.2 17.3.63 16.88c.2-.2.57-.3 1.11-.3 1.07 0 3.31.44 4.98 2.1.59.6 1.01 1.23 1.32 1.82v-3.56c-.2.05-.43.08-.7.08a7.23 7.23 0 0 1-4.76-2.1 7.32 7.32 0 0 1-1.86-3.45c-.21-.9-.3-2.09.13-2.52.08-.07.3-.3 1.13-.3 1.04 0 3.23.42 4.85 2.04.53.53.92 1.1 1.2 1.64v-1.96c-.97-.69-2.4-3-2.4-5.24C5.64 2.47 7.53.27 8.49.27c.06 0 .11 0 .17.02.83.19 2.78 2.06 2.78 4.84 0 2.23-1.42 4.55-2.4 5.24v1.93c.3-.53.68-1.09 1.2-1.61a7.34 7.34 0 0 1 4.84-2.03c.83 0 1.06.23 1.13.3.69.69.3 3.95-1.72 5.98a7.22 7.22 0 0 1-4.75 2.08c-.27 0-.5-.03-.7-.08v3.34c.3-.52.67-1.06 1.17-1.56a7.27 7.27 0 0 1 4.88-2.03c.86 0 1.1.23 1.18.31zm-1.19-7.35c-.89 0-2.76.37-4.13 1.74-1.76 1.76-1.95 4.15-1.73 4.57.06.02.22.07.52.07 1.08 0 2.81-.56 4.04-1.8 1.6-1.6 1.87-3.96 1.72-4.54-.08-.02-.21-.04-.42-.04zm-7.21 6.3c-.06.03-.22.08-.52.08a6.27 6.27 0 0 1-4.05-1.8c-1.6-1.6-1.88-3.97-1.72-4.55.07-.02.2-.04.4-.04.9 0 2.77.37 4.15 1.75 1.76 1.76 1.95 4.15 1.74 4.57zm-.54 8.18c.29 0 .45-.04.5-.07.22-.42 0-2.86-1.8-4.67a6.59 6.59 0 0 0-4.28-1.82c-.19 0-.32.02-.39.03-.15.6.15 3.01 1.8 4.66a6.47 6.47 0 0 0 4.17 1.87zm-.68-19c0-2.15 1.41-3.72 1.82-3.86a4.64 4.64 0 0 1 1.98 3.86c0 2-1.37 3.94-1.9 4.39a6.82 6.82 0 0 1-1.9-4.39zm3.11 19.02c.85 0 2.67-.38 4.08-1.8 1.64-1.63 1.88-4.05 1.71-4.62a2 2 0 0 0-.46-.05c-.9 0-2.8.37-4.18 1.75-1.82 1.81-1.95 4.3-1.7 4.66.04.01.22.06.55.06z" clip-rule="evenodd"/>
</svg>