<svg xmlns="http://www.w3.org/2000/svg" xmlns:xlink="http://www.w3.org/1999/xlink" width="51" height="60">
  <defs>
    <path id="a" d="M82.4 4251l-1.4-4.84c2.79-.41 5.47-.33 7.98.24l1.8.4-4.4-19.3a44.4 44.4 0 0 0 12.84-4.5l5.78 20.86c-2.67 1.64-12.68 7.34-22.6 7.14zm-3.76-6.94c-6.03 1.2-11 4.16-13.6 5.94L60 4226.8c8.5-4.24 19.27-3.9 22.29-3.7l4.71 20.67a24.95 24.95 0 0 0-8.36.29zm20.06-23.58c-4.17 2.6-9.04 4.08-13.36 4.93l-1-4.37-.81-.1c-.57-.05-13.41-1.35-23.85 3.62l-1.43-6.56-2.25.48L68.93 4278l1.13-.24 1.12-.24-5.43-24.99c1.79-1.3 6.59-4.5 12.49-5.92l1.9 6.55.82.05c.48.02.97.03 1.45.03 12 0 23.41-7.58 23.91-7.91l.68-.46-6.99-25.2z"/>
  </defs>
  <use fill="#6cb854" transform="translate(-56 -4218)" xlink:href="#a"/>
</svg>