<svg xmlns="http://www.w3.org/2000/svg" xmlns:xlink="http://www.w3.org/1999/xlink" width="55" height="60">
  <defs>
    <path id="a" d="M265 4425v16a5 5 0 0 1-5 5h-6v-4h4a3 3 0 0 0 3-3v-14a2 2 0 1 1 4 0zm-13 23h-5a1 1 0 0 0-1 1v15h-8v-17.59l6.41-6.41H252zm-30-1a1 1 0 0 0-2 0v3h-6v-5a5 5 0 0 1 5-5h4.59l6.41 6.41V4464h-8zm-6 5h4v12h-4zm13.6-12l3 3-1.6 1.59-4.59-4.59zm4.4-4a11.9 11.9 0 0 0 3-.4v3l-3 3-3-3v-3c.98.26 1.99.4 3 .4zm-10-12v-6h20v6a10 10 0 1 1-20 0zm-3 0a1 1 0 0 1 0-2h1v2zm6.9-16a5.02 5.02 0 0 1-3.9 3.9v-.9a3 3 0 0 1 3-3zm16.1 3.9a5.02 5.02 0 0 1-3.9-3.9h.9a3 3 0 0 1 3 3zm-20 2.02a7 7 0 0 0 5.92-5.92h8.16a7 7 0 0 0 5.92 5.92v2.08h-20zm23 8.08a1 1 0 0 1 0 2h-1v-2zm-10 22.59l-1.59-1.59 3-3h3.19zm-5 1.82l2-2 2 2V4464h-4zm30-25.27a4 4 0 0 0-3 3.86v14a1 1 0 0 1-1 1h-4v-1a1 1 0 0 0-1-1h-14v-3.1a12.02 12.02 0 0 0 6.82-8.9H247a3 3 0 0 0 0-6h-1v-2h7a1 1 0 0 0 0-2h-7v-5a5 5 0 0 0-5-5h-14a5 5 0 0 0-5 5v5h-7a1 1 0 0 0 0 2h7v2h-1a3 3 0 0 0 0 6h1.18a12.02 12.02 0 0 0 6.82 8.9v3.1h-10a7 7 0 0 0-7 7v6a1 1 0 0 0 1 1h1v13a1 1 0 0 0 1 1h32a1 1 0 0 0 1-1v-15h5a1 1 0 0 0 1-1v-1h6a7 7 0 0 0 7-7v-16a4 4 0 0 0-3-3.86z"/>
  </defs>
  <use fill="#f6bc41" transform="translate(-212 -4406)" xlink:href="#a"/>
</svg>