<svg xmlns="http://www.w3.org/2000/svg" xmlns:xlink="http://www.w3.org/1999/xlink" width="50" height="36">
  <defs>
    <path id="a" d="M136.83 11427.4a.93.93 0 0 0 .93-.93v-7.45a.93.93 0 0 0-1.86 0v7.45c0 .51.42.93.93.93z"/>
    <path id="b" d="M125.35 11430.99a.93.93 0 0 0 1.43-1.2l-4.78-5.7a.93.93 0 0 0-1.43 1.2z"/>
    <path id="c"
          d="M112.84 11439.93l7.34 1.3a.68.68 0 0 0 .16 0 .94.94 0 1 0 .16-1.87l-7.33-1.27a.94.94 0 1 0-.33 1.87z"/>
    <path id="d"
          d="M152.4 11440.46c.08.45.47.77.92.78a.68.68 0 0 0 .16 0l7.34-1.3a.94.94 0 0 0-.33-1.86l-7.34 1.3a.93.93 0 0 0-.75 1.08z"/>
    <path id="e"
          d="M147.6 11431.32a.94.94 0 0 0 .7-.34l4.8-5.7a.93.93 0 1 0-1.44-1.2l-4.78 5.71a.93.93 0 0 0 .11 1.31c.17.14.38.22.6.22z"/>
    <path id="f" d="M160.48 11452.04h-47.3a.93.93 0 1 0 0 1.86h47.3a.93.93 0 1 0 0-1.86z"/>
    <path id="g"
          d="M126.28 11449.09c.16.3.47.48.81.48a.99.99 0 0 0 .45-.12.94.94 0 0 0 .36-1.24 10.24 10.24 0 1 1 17.9 0 .93.93 0 1 0 1.58.88 12.1 12.1 0 1 0-21.15 0z"/>
  </defs>
  <use fill="#69955a" transform="translate(-112 -11418)" xlink:href="#a"/>
  <use fill="#69955a" transform="translate(-112 -11418)" xlink:href="#b"/>
  <use fill="#69955a" transform="translate(-112 -11418)" xlink:href="#c"/>
  <use fill="#69955a" transform="translate(-112 -11418)" xlink:href="#d"/>
  <use fill="#69955a" transform="translate(-112 -11418)" xlink:href="#e"/>
  <use fill="#69955a" transform="translate(-112 -11418)" xlink:href="#f"/>
  <use fill="#69955a" transform="translate(-112 -11418)" xlink:href="#g"/>
</svg>
