<svg xmlns="http://www.w3.org/2000/svg" width="56" height="56" fill="none">
  <path fill="#000" fill-rule="evenodd" d="M.58 28A27.45 27.45 0 0 1 28 .58 27.45 27.45 0 0 1 55.42 28 27.45 27.45 0 0 1 28 55.42 27.45 27.45 0 0 1 .58 28zm1.75 0A25.7 25.7 0 0 0 28 53.67 25.7 25.7 0 0 0 53.67 28 25.7 25.7 0 0 0 28 2.33 25.7 25.7 0 0 0 2.33 28z" clip-rule="evenodd"/>
  <path fill="#000" d="M27.13 9.2h1.75v4.43h-1.75zM42.38 27.13h4.42v1.75h-4.42zM27.13 42.38h1.75v4.42h-1.75zM9.2 27.13h4.42v1.75H9.2z"/>
  <path fill="#000" fill-rule="evenodd" d="M17.21 18.45l-3.12-3.13 1.23-1.23 3.13 3.12-1.24 1.24zM39.12 18.84l-1.2-1.28 3.24-3.01 1.2 1.28-3.24 3.01zM40.18 42.36l-3.02-3.24 1.28-1.2 3.02 3.24-1.28 1.2zM14.84 41.46l-1.2-1.28 3.24-3.02 1.2 1.28-3.24 3.02zM31.03 23.74L28 26.76l-6.02-6.01-1.24 1.23L26.76 28l-2.5 2.5 1.23 1.24 2.51-2.5 2.7 2.7 1.24-1.24-2.7-2.7 3.03-3.03-1.24-1.23z" clip-rule="evenodd"/>
  <path fill="#000" fill-rule="evenodd" d="M5 28C5 15.32 15.32 5 28 5s23 10.32 23 23-10.32 23-23 23S5 40.68 5 28zm1.75 0A21.27 21.27 0 0 0 28 49.25 21.27 21.27 0 0 0 49.25 28 21.27 21.27 0 0 0 28 6.75 21.27 21.27 0 0 0 6.75 28z" clip-rule="evenodd"/>
</svg>