<svg xmlns="http://www.w3.org/2000/svg" width="41" height="56" fill="none">
  <path fill="#000" fill-rule="evenodd" d="M31.94 31.05H9.14a3.77 3.77 0 0 1-3.78-3.75v-8.28c0-2.06 1.7-3.75 3.77-3.75h22.8a3.77 3.77 0 0 1 3.78 3.75v8.28c0 2.06-1.7 3.75-3.77 3.75zM9.14 16.86c-1.2 0-2.18.97-2.18 2.16v8.28c0 1.19.98 2.16 2.17 2.16h22.8c1.2 0 2.18-.97 2.18-2.16v-8.28c0-1.19-.97-2.16-2.17-2.16H9.14z" clip-rule="evenodd"/>
  <path fill="#000" fill-rule="evenodd" d="M40.47 44.63v-32.5c0-2.07-1.55-3.75-3.45-3.75h-.52V5.63h-1.6v2.75H30.6l3.17-7.16L32.3.58l-3.46 7.8h-1.76a6.33 6.33 0 0 0-5.55-6.05V.43h-1.6v1.9a6.33 6.33 0 0 0-5.55 6.05h-1.36L9.5.72l-1.46.67 3.23 6.99H7.95V5.63h-1.6v2.75H4.44c-1.9 0-3.45 1.68-3.45 3.75v32.5c0 2.07 1.54 3.75 3.45 3.75h2.78L.08 54.67l1.06 1.2L2.9 54.3h34.56l1.65 1.62 1.12-1.13-6.54-6.42h3.33c1.9 0 3.45-1.68 3.45-3.75zM4.44 9.97H16.1L16 9.1a4.74 4.74 0 1 1 9.45 0l-.1.88h11.67c1.02 0 1.85.97 1.85 2.16v21.26H2.59V12.13c0-1.2.83-2.16 1.85-2.16zM2.59 35v9.64c0 1.19.83 2.16 1.85 2.16h32.58c1.02 0 1.85-.97 1.85-2.16v-9.64H2.59zM4.7 52.72l1.76-1.55h27.8l1.58 1.55H4.7zm3.57-3.14h24.37l-1.23-1.2H9.64l-1.37 1.2z" clip-rule="evenodd"/>
  <path fill="#000" fill-rule="evenodd" d="M24.3 8.39a3.57 3.57 0 0 1-7.15 0c0-1.96 1.6-3.56 3.58-3.56 1.97 0 3.58 1.6 3.58 3.56zm-1.6 0a1.97 1.97 0 1 0-3.95 0 1.97 1.97 0 0 0 3.95 0zM20.07 18.77l1.32.9-4.26 6.1-1.32-.9 4.26-6.1zM26.3 21.81l-4.27 6.1-1.31-.9 4.25-6.1 1.32.9zM5.36 41.08a3.96 3.96 0 0 1 3.97-3.94c2.2 0 3.98 1.77 3.98 3.94a3.96 3.96 0 0 1-3.98 3.95 3.96 3.96 0 0 1-3.97-3.95zm1.6 0a2.37 2.37 0 1 0 4.74 0c0-1.3-1.06-2.35-2.37-2.35a2.37 2.37 0 0 0-2.37 2.35zM27.77 41.08a3.96 3.96 0 0 1 3.97-3.94c2.2 0 3.97 1.77 3.97 3.94a3.96 3.96 0 0 1-3.97 3.95 3.96 3.96 0 0 1-3.97-3.95zm1.6 0a2.37 2.37 0 1 0 4.74 0c0-1.3-1.06-2.35-2.37-2.35a2.37 2.37 0 0 0-2.37 2.35z" clip-rule="evenodd"/>
</svg>