<svg xmlns="http://www.w3.org/2000/svg" viewBox="0 0 455.3 530.48">
  <title>why-like</title>
  <g>
    <path d="M337,516c0,8-51.08,14.44-114.09,14.44S108.83,524,108.83,516s51.08-14.44,114.09-14.44S337,508.06,337,516"
          fill="#d8d5d2"/>
    <path d="M258.54,512.65h4.21V21.7h-4.21v491Z" fill="#804a27"/>
    <path d="M177.83,124.85l-.09,30.53L158.49,170l-12.65-8.12-1.26-28.45,33.25-8.6Z" fill="#efac75"/>
    <path
      d="M186.84,100.32l-4.36,14.89a28,28,0,0,1-10.59,14.9c-12.6,9-37,22.78-52.76,7.51-11.49-11.18-11-30-7.86-45.26.3-1.5.62-2.94,1-4.35,1-4.21,2.16-8,3.23-11.2A27.91,27.91,0,0,1,138.3,58.09l5.65-.74a28,28,0,0,1,12.75,1.3l10.21,3.55a28,28,0,0,1,14.92,12.25l2.29,3.91a28,28,0,0,1,2.72,22"
      fill="#fcba7d"/>
    <path
      d="M118.46,70.58c-4.39-4.21-7.92-14.74,3.89-27.54a4.51,4.51,0,0,1,7.3.86L132,41.11a4.53,4.53,0,0,1,7.17.41c2.26,3.2,7.36,6.43,18.6,7.11,23.69,1.44,44.28,8.16,37.7,38.14s-11.92,43.11-17.65,44.94V115.77s12.87-14,2.07-20.83c-5-3.17-8,4.16-9.33,8.77a3.5,3.5,0,0,1-6.91-1.13,3,3,0,0,1,.09-.41c1.33-7.92,3.74-28.72-6.66-33.4-21.6-9.73-38,2.44-38.63,1.81m25.73,31.86c-.38,2.38-2.14,4.07-3.95,3.79s-3-2.44-2.59-4.82,2.14-4.09,3.95-3.8,3,2.44,2.59,4.82m-25.25.34c-.38,2.48-2.17,4.26-4,4s-2.94-2.54-2.55-5,2.17-4.26,4-4,3,2.54,2.55,5"
      fill="#804a27"/>
    <path
      d="M132.79,87.7c-.12,2.35,3.62,2.71,7.75,2.71S149,92,149.25,90s-16.18-7.67-16.46-2.29m-18.34,4.15a25.1,25.1,0,0,0-3.18.5c.3-1.49.62-2.93,1-4.34,4.33-1.64,9.33-2.44,9.71.5.32,2.34-3.37,3-7.48,3.35"
      fill="#804a27"/>
    <path
      d="M124.79,104.09a66.67,66.67,0,0,0-5,5.77,29.15,29.15,0,0,0-2.09,3.15,8,8,0,0,0-1.15,3.47,2.4,2.4,0,0,0,.5,1.61,2.82,2.82,0,0,0,1.44,1,8.92,8.92,0,0,0,3.68.1,24.66,24.66,0,0,0,3.69-.85c1.22-.35,2.42-.78,3.6-1.25a27.59,27.59,0,0,1-7.23,2.52,8.67,8.67,0,0,1-3.89,0,3.37,3.37,0,0,1-1.72-1.1,3,3,0,0,1-.62-2,8.41,8.41,0,0,1,1.26-3.71,23.72,23.72,0,0,1,2.19-3.16,44.69,44.69,0,0,1,5.32-5.51"
      fill="#bf8860"/>
    <path d="M182.58,486.81l-11.69,4.82-6.12-14.83L176.46,472Zm11.19,21.07h12.64v-16H193.77Z" fill="#efac75"/>
    <path d="M131,288.13l-4.77,114.14,38.66,77.52,13.92-4.67L155.25,402l23.56-129.15L131,288.13Z" fill="#988578"/>
    <path d="M138.21,289.33,159.46,302l32,188.86h16V284.65a11.8,11.8,0,0,0-15.13-11.31l-54.14,16Z" fill="#af998a"/>
    <path
      d="M120.15,154.67,74.51,220.22l14.65,19.51,40.32-46.26Zm89.33-.16L188,186.71l55.78,57c4.84-1.8,10.26-12.76,8.23-17.53Z"
      fill="#ede84f"/>
    <path
      d="M212.15,294.65S149.4,301.2,122,288.5c0,0,1.48-117-1.89-133.8l21-6.86,3.82-1.31s5,10.51,18.89,8.15,13.94-9.38,13.94-9.38l3.94,1.58,27.77,7.63s-.64,92.84,2.67,140.14"
      fill="#e3f4fe"/>
    <path
      d="M181.72,146.88c-1.09,4.59-6.22,10.26-17.69,11.53-15.1,1.68-20.75-7-22.91-10.57l3.82-1.31s5,10.51,18.89,8.15,13.94-9.38,13.94-9.38l3.94,1.58Z"
      fill="#ede84f"/>
    <path d="M138.69,126a11.51,11.51,0,0,1-21.42,0Z" fill="#d94a56"/>
    <path d="M138.06,126c-1.85,2.08-5.47,3.27-11.42,3.37s-8.16-1.23-9-3.37Z" fill="#feffff"/>
    <path
      d="M254.57,195.26c-1,3.81-12.21,22.12-18.45,32.15-3.84,6.17-1.8,14.56,4.74,17.75.36.17.72.33,1.11.48a11.59,11.59,0,0,0,15.09-8l9-32.63a16,16,0,0,1,6.32-8.9c2.2-1.54,1.4.17,6-5.51,3.06-3.76,2.66-6.61.67-9.3-2.2-2.94-.84-9.08-3-10.2-2.79-1.44-7-5.86-7.58-2.64s-3.56,6.65-5,8.2c-1,1.09,2.5-2.72,2.41-4.22a11.66,11.66,0,0,0-3.31-6.94,1.43,1.43,0,0,0-2.47.87l-.57,8.94-4.95,19.9Z"
      fill="#fcba7d"/>
    <path d="M142.27,514.57V511.7l6.3-2,20.73-4.88,17.22-7.72,1.92,3.26s-9.51,9.19-21.19,12.42c-9.05,2.51-25,1.8-25,1.8"
          fill="#e3f4fe"/>
    <path
      d="M187.1,498.16c-6.35,5.07-13.2,9.5-20.62,11.51a73.05,73.05,0,0,1-24.21,2s.07-3.33,1.14-4.79c2.3-3.13,5.62-2.87,9.63-3.44a19.91,19.91,0,0,0,9.05-3.36h0q1-.66,2-1.35c1.11-.82,2.31-1.72,3.71-2.71.56-.4,1.16-.83,1.8-1.25,1.84-1.24-.34-5.95-1.41-8,.8-1.78,2.14-.13,3.55-1.4,4,2.44,6.49,1.57,10.59-1.1,1.88,4.9,2.41,9.23,4.82,13.85"
      fill="#218921"/>
    <path d="M166.48,520.55v-2.81l25.92-5.95,14.85-.67v4.22s-11.54,8.81-40.77,5.21" fill="#e3f4fe"/>
    <path
      d="M207.26,504.24v8.34c-7.73,5.43-15.43,6.31-25.76,6.69-6.9.25-15.05-.17-15-1.52.06-2.56.61-7.52,7.19-7.88,2-.11,4-.31,5.84-.56q3.22-.42,6.43-1l.06,0a5.74,5.74,0,0,0,2.1-.85,6.41,6.41,0,0,0,3-5.47v-3.48l5.86.27c.4,2.74,2.05,6.08,10.25,5.48"
      fill="#22a022"/>
    <path
      d="M171.45,496.92c-.09.9-1.66-.27-3.58-.83l-.11,0c.56-.4,1.16-.83,1.8-1.25,1.17.57,2,1.44,1.89,2.12m-5,4.2c-.09.89-1.66-.28-3.58-.84a8,8,0,0,0-.79-.17c.63-.41,1.28-.87,2-1.35,1.45.55,2.52,1.57,2.42,2.36m24.17,10.48c-.45.77-1.41-.92-2.94-2.22a7.51,7.51,0,0,0-1.69-1.09,5.71,5.71,0,0,0,2.1-.85,6.14,6.14,0,0,1,.61.43c1.53,1.15,2.39,2.92,1.92,3.73m-6.72.91c-.46.78-1.4-.92-2.92-2.23a8.58,8.58,0,0,0-1.48-1c.93-.11,1.83-.23,2.69-.38,1.41,1.17,2.18,2.82,1.71,3.58"
      fill="#e3f4fe"/>
    <path d="M183,481l-17.06,7-3.23-7.83,17.06-7Zm6.65,16.43h17.84v-8.18H189.65v8.18Z" fill="#d7c1a3"/>
    <path
      d="M1.35,186.3c1.95.86,7.47,3.25,10,4.33A74.21,74.21,0,0,1,3.91,183c-4.29-5.26-3.79-8.79-.38-5.93Q9.19,181.9,14.66,187S6.16,176.08,3.9,172.49s.17-6.32,2.26-3.56C8.57,172.09,17,182,17,182s-5.51-10.66-6.49-14.34,1.45-5.51,3.08-2c1.73,3.76,8.54,14.7,8.54,14.7a4.06,4.06,0,0,1,.58.59c4.59,5.61,7.58,5.21,7.58,5.21s-4.17-9.38-3.09-13.08c.74-2.5,4,3.07,6,7a38.59,38.59,0,0,1,2.56,6.17L40,199.57s43.5,15.52,49.16,28.66c4.85,11.24-1.84,14.68-7.07,14.12-4-.45-40.59-24.91-58.2-38.69h0s-16.21-9.55-20-12-5-6.46-2.48-5.34"
      fill="#efac75"/>
    <path
      d="M258.65,2.94a3,3,0,0,1,5.17-2c6.7,6.93,19.29,17.86,32.4,18.28,19.26.61,34.84-14.6,51.3-10.31s20.48,24,34.7,23.1,17.15-12.46,31.33-13.1,30.16,13.61,39.86,15.37-21,7-25.41,20.4-.65,23.36-5.28,26.76-12.3-7.75-23.27-1.23-18.38,13.18-52.9,3.62c-19-5.26-15.09,15.27-29.89,20s-53.55-6.46-57.12-2.31c-3,3.47-1.46-73.65-.88-98.6"
      fill="#22a022"/>
    <path d="M256.43,497.15l8.89,3.67L270,489.53l-8.89-3.67Zm-18.86,11.52h10.36V495.53H237.57Z" fill="#efac75"/>
    <path d="M220,106.4s71.58-25.94,73.62-10.53,12.16,113.77,12.16,113.77c-62.5,4.3-112-4-112-4l26.28-99.24Z"
          fill="#c9631f"/>
    <path d="M290.82,296.06l20.33,105.46-41.78,92.23s-7.47,3.61-12-1.6l28.1-88.95-36.4-76.66,4.79-28.21,36.92-2.27Z"
          fill="#066287"/>
    <path
      d="M266,323.34c-8.62,20.84-16.84,172.82-16.84,172.82s-5.81,3.61-13.43,0c0,0-4.2-92.24-5.11-101.85-.6-6.31-4.94-39.69-6.16-63.95-.64-12.75-.42-23,1.65-25.48,2.56-3.06,11.2-4.31,20.29-4.74a248.19,248.19,0,0,1,25.42.34s2.8,2-5.82,22.86"
      fill="#1a678e"/>
    <path
      d="M217.87,169.43l-40.33,58,11.54,12.42s36.79-31.9,40.3-35.93-11.5-34.45-11.5-34.45m70.56-1.29s13.14,12.07,33.58,63.37c13.25,33.25-8.74,27.55-12.83,21.65-4.27-6.15-22-43.71-22-43.71l1.23-41.31Z"
      fill="#22a022"/>
    <path
      d="M233.69,328.13c-4,1-7,1.7-9.28,2.23-.64-12.75-.42-23,1.65-25.48,2.56-3.06,11.2-4.31,20.29-4.74.41,7.77-.16,25-12.66,28"
      fill="#066287"/>
    <path
      d="M296.84,299.94c-34.48,12.42-72,6.55-72,6.55,2.42-22.46-7.61-136.33-7.61-136.33,8.5-7.66,16.78-12,24.57-14.06a45.24,45.24,0,0,1,24.86.53c18.2,5.49,23.77,13.75,23.77,13.75s3.18,33.81,3.38,43.48c.4,19.52,3,86.08,3,86.08"
      fill="#e3f4fe"/>
    <path d="M266.67,156.63a12.43,12.43,0,0,1-24.85-.3h0v-.22a45.3,45.3,0,0,1,24.85.53" fill="#22a022"/>
    <path d="M254,166a9.56,9.56,0,0,0,9.56-9.57V143.09H244.4v13.29A9.56,9.56,0,0,0,254,166" fill="#efac75"/>
    <path
      d="M320.37,235.41,334,221l10.42,10.83S329.59,256,320.36,257.54s0-22.13,0-22.13M182.6,222.79l19.91,23.89-12.09,8.94-11.85-12.1a12.39,12.39,0,0,1,.19-17.52q.39-.37.81-.72l3-2.49Z"
      fill="#22a022"/>
    <path
      d="M203.36,247.7l16.23,22.69s19.92,10.9,20.43,13.48S228.63,282,228.63,282a39.21,39.21,0,0,0,3.81,17.5c4.31,8.88-1.18,5.82-1.33,5.29s-4.76-10.24-4.76-10.24.07,6.37,1.46,9.15.58,3.71-.5,3.48-6.91-10.45-7.11-13.91A48.89,48.89,0,0,0,221.81,305c.7,2.71-1.33,1.19-2.6-1a68.75,68.75,0,0,1-3.37-7.05s-4.25-10.69-3.71-21.43l-21.71-19.85,11.2-10,1.74,2.08Z"
      fill="#fdc68b"/>
    <path
      d="M291,96.78S296,122.4,284.4,138c-4.28,5.76-11.44,13.45-21,13.23-39.1-.9-42.71-52-40.9-56.54s32.18-35.78,32.18-35.78L270,63.1Z"
      fill="#fcba7d"/>
    <path
      d="M257.07,58.89,261.8,69a31.89,31.89,0,0,0,6.66,9.37c7.52,7.29,22.71,21.82,25.63,22.94,0,0,2-23.16-10.59-34.29s-26.43-8.11-26.43-8.11"
      fill="#e56a17"/>
    <path
      d="M261.58,71.94l-4.51-13s-21.82-4.52-35,11.12-27.64,133.1-27.64,133.1,28.28-65,39-96.76a45.44,45.44,0,0,1,16.1-22l10.6-7.82a4.07,4.07,0,0,0,1.43-4.6"
      fill="#e56a17"/>
    <path
      d="M279.68,113.82c0,2.26,1.3,4.08,2.92,4.08s2.91-1.83,2.91-4.08-1.31-4.09-2.91-4.09-2.92,1.83-2.92,4.09m-29.9,0c0,2.26,1.42,4.08,3.18,4.08s3.18-1.83,3.18-4.08-1.42-4.09-3.18-4.09-3.18,1.83-3.18,4.09"
      fill="#804a27"/>
    <path
      d="M269.32,113.82a34.54,34.54,0,0,1,3.91,4.71,18.1,18.1,0,0,1,1.55,2.66,8.41,8.41,0,0,1,.56,1.47,4.55,4.55,0,0,1,.17,1.6,2.31,2.31,0,0,1-.24.83,2.49,2.49,0,0,1-.53.67,3.7,3.7,0,0,1-1.43.78,8.68,8.68,0,0,1-3.12.26,21.7,21.7,0,0,1-5.94-1.45c1,.26,2,.49,3,.66a20.41,20.41,0,0,0,3,.34,8.69,8.69,0,0,0,2.93-.32A2.31,2.31,0,0,0,275,124.2a5.93,5.93,0,0,0-.64-2.8,22.64,22.64,0,0,0-1.44-2.65,59.28,59.28,0,0,0-3.56-4.93"
      fill="#bf8860"/>
    <path d="M253.82,130.92s2.19,9.86,10.71,9.86,10.71-9.87,10.71-9.87H253.82Z" fill="#d94a56"/>
    <path d="M254.46,130.92c1.85,2.07,5.33,4.63,11.29,4.73s8.29-2.6,9.12-4.73Z" fill="#feffff"/>
    <path
      d="M287.09,518.27v-2.19l-4.79-1.53-15.77-3.72L253.43,505,252,507.45s7.23,7,16.11,9.45c6.88,1.91,19,1.37,19,1.37"
      fill="#e3f4fe"/>
    <path
      d="M287.09,516.07a55.49,55.49,0,0,1-18.4-1.53c-5.66-1.53-10.87-4.9-15.71-8.75,1.84-3.52,2.25-6.82,3.67-10.56,3.13,2,5.05,2.72,8.06.85a24.5,24.5,0,0,0,2.7,1.07c-.82,1.55-2.48,5.14-1.09,6.08.49.33.95.64,1.37,1,1.07.73,2,1.42,2.85,2,.5.37,1,.72,1.49,1a15.16,15.16,0,0,0,6.86,2.56c3.06.43,5.57.24,7.34,2.63.8,1.09.86,3.62.86,3.62"
      fill="#ddd545"/>
    <path d="M270.28,519.05v-2.3L249,511.88l-12.15-.55v3.45s9.44,7.22,33.39,4.26" fill="#e3f4fe"/>
    <path
      d="M270.28,516.75c0,1.11-6.66,1.46-12.29,1.26-8.47-.32-14.78-1-21.11-5.49v-6.83c6.72.49,8.36-2.8,8.68-5.06l4.53.35v2.86A5.24,5.24,0,0,0,254.3,509q2.65.51,5.32.85c1.52.21,3.14.36,4.77.46,5.39.3,5.83,4.35,5.89,6.44"
      fill="#ede84f"/>
    <path
      d="M267.69,504.19h-.06c-1.48.44-2.65,1.32-2.74.63-.05-.52.56-1.18,1.43-1.61.49.33.95.65,1.37,1m4.34,3.07a3.15,3.15,0,0,0-.61.13c-1.48.44-2.66,1.31-2.74.63s.74-1.37,1.86-1.79c.5.37,1,.72,1.49,1M254.29,509a6.15,6.15,0,0,0-1.41.89c-1.24,1.08-2,2.46-2.4,1.83s.33-2.12,1.57-3.06a2.75,2.75,0,0,1,.52-.34,5,5,0,0,0,1.72.68m5.33.85a5.77,5.77,0,0,0-1.22.79c-1.26,1.06-2,2.47-2.41,1.82s.26-2,1.4-2.92c.71.11,1.46.22,2.23.31"
      fill="#e3f4fe"/>
    <path
      d="M272,98.77c-.12,2.35,3.62,2.72,7.75,2.72s8.48,1.57,8.71-.44S272.26,93.39,272,98.77m-10.84.81c.31,2.33-3.38,3-7.49,3.34s-8.33,2.27-8.73.29,15.5-9,16.22-3.63"
      fill="#e56a17"/>
    <path
      d="M388.24,188.73c-2.71,1.53-9.82,2.9-9.82,2.9s6.85-3.27,10-5.11c1.39-.8.6-4.91-5.14-1.5a44.79,44.79,0,0,1-16.94,5.82s3-12.34.49-11.53-11,21.85-11,21.85l-20.65,18.75-1.86,2,11.38,10.28,17-24.18a21.91,21.91,0,0,0,10.47-1.36A63.51,63.51,0,0,0,383.93,204c5.91-2.21,6.11-2.8,5.82-3.6s-4.66.87-8.93.51l.2-.22a54.08,54.08,0,0,0,8.19-3c3.28-1.72,3.24-4.93.63-3.92a47.15,47.15,0,0,1-11.22,2.9c3.41-.6,11.83-5.41,12.76-6,2.13-1.39,1.28-4.41-3.14-1.9"
      fill="#fdc68b"/>
  </g>
</svg>
