<svg xmlns="http://www.w3.org/2000/svg" xmlns:xlink="http://www.w3.org/1999/xlink" width="51" height="60" viewBox="0 0 51 60"><defs><path id="97kqa" d="M138.401 7422.995l-1.401-4.833c2.785-.413 5.467-.335 7.984.234l1.792.405-4.39-19.299c4.095-.816 8.68-2.185 12.836-4.502l5.778 20.859c-2.671 1.644-12.68 7.339-22.599 7.136zm-3.762-6.935c-6.029 1.202-11.008 4.16-13.59 5.94L116 7398.803c8.491-4.246 19.271-3.898 22.286-3.7L143 7415.77c-2.67-.378-5.475-.282-8.36.289zm20.057-23.58c-4.168 2.595-9.04 4.082-13.353 4.935l-.997-4.38-.818-.088c-.566-.06-13.413-1.359-23.852 3.615l-1.425-6.562-2.251.478L124.929 7450l1.126-.24 1.125-.238-5.429-24.991c1.784-1.304 6.584-4.496 12.486-5.918l1.9 6.548.82.044c.486.026.97.038 1.457.038 11.991-.002 23.407-7.58 23.906-7.916l.68-.457-6.99-25.207z"/></defs><use xlink:href="#97kqa" transform="translate(-112 -7390)"/></svg>