<svg width="15" height="9" viewBox="0 0 15 9" fill="none" xmlns="http://www.w3.org/2000/svg"><path fill-rule="evenodd" clip-rule="evenodd" d="M0.229169 3.96859C1.8719 1.66221 4.51789 0.166504 7.5 0.166504C10.4821 0.166504 13.1281 1.66221 14.7708 3.96859C14.8551 4.08516 14.8551 4.24264 14.7708 4.35921C13.1281 6.66563 10.4821 8.1665 7.5 8.1665C4.51789 8.1665 1.8719 6.66563 0.229169 4.35921C0.144893 4.24264 0.144893 4.08516 0.229169 3.96859ZM14.0729 4.1665C12.5396 2.13869 10.1717 0.833171 7.5 0.833171C4.82833 0.833171 2.46044 2.13869 0.927086 4.1665C2.4605 6.19297 4.8294 7.49984 7.5 7.49984C10.1706 7.49984 12.5395 6.19297 14.0729 4.1665ZM7.5 1.83317C6.21529 1.83317 5.16667 2.88178 5.16667 4.1665C5.16667 5.45122 6.21529 6.49984 7.5 6.49984C8.78472 6.49984 9.83334 5.45122 9.83334 4.1665C9.83334 2.88178 8.78472 1.83317 7.5 1.83317ZM9.16667 4.1665C9.16667 3.24208 8.42443 2.49984 7.5 2.49984C6.57558 2.49984 5.83334 3.24208 5.83334 4.1665C5.83334 5.09092 6.57558 5.83317 7.5 5.83317C8.42443 5.83317 9.16667 5.09092 9.16667 4.1665Z" fill="#AFAFAF"/></svg>