<svg xmlns="http://www.w3.org/2000/svg" xmlns:xlink="http://www.w3.org/1999/xlink" width="47" height="56"><defs><path id="a" d="M225.2 5057.13v-.22a13 13 0 0 1 2.4-7.46v1.15h4.81v-2.2h-3.99a14.96 14.96 0 0 1 8.09-4.88 11.13 11.13 0 0 0-1.65 8.91 11.08 11.08 0 0 0 5.53 7.17v4.89h10.44v-4.89a11.05 11.05 0 0 0 3.22-2.63 76 76 0 0 1-.7 8.73 100.44 100.44 0 0 0-.5 4.72l-.11 1.2a25.65 25.65 0 0 0-.11 4.45v8.24h-19.35v-6.75l-7.48.49-.66-8.29-4.7-.44zm20.44-16.25a8.9 8.9 0 0 1 3.66 17.02l-.66.28v4.11h-6.07v-4.06l-.65-.27a8.9 8.9 0 0 1 3.66-17.02zm-21.81 39.53l7.27-.5v6.65h23.72v-10.6a23.27 23.27 0 0 1 .1-4.11c.06-.44.06-.83.11-1.27.11-1.31.28-2.9.5-4.6.49-4.24 1.03-8.96.43-12.3a11.12 11.12 0 0 0-3.77-12.8 11 11 0 0 0-13.28.11c-8.58.39-15.8 7.52-15.9 15.76l-5.63 14.44 5.74.55z"/><path id="b" d="M241.16 5069.76v-2.2h8.96v2.2z"/><path id="c" d="M244.54 5036.29v-4.85h2.19v4.85z"/><path id="d" d="M258.81 5050.66v-2.2h4.81v2.2z"/><path id="e" d="M233.52 5040.9v-4.85h2.2v4.85z"/><path id="f" d="M254.22 5039.56v-2.2h4.83v2.2z"/></defs><use transform="translate(-217 -5031)" xlink:href="#a"/><use transform="translate(-217 -5031)" xlink:href="#b"/><use transform="translate(-217 -5031)" xlink:href="#c"/><use transform="translate(-217 -5031)" xlink:href="#d"/><use transform="rotate(-45 -5946.95 2784.44)" xlink:href="#e"/><use transform="rotate(-45 -5924.95 2784.44)" xlink:href="#f"/></svg>