<svg xmlns="http://www.w3.org/2000/svg" width="54" height="56" fill="none"><path fill="#000" fill-rule="evenodd" d="M24.42 22.99a.32.32 0 0 1 0-.32 7.4 7.4 0 0 0-.74-7.28L13.04.55a1.2 1.2 0 1 0-1.93 1.39l10.62 14.84a5 5 0 0 1 .5 4.93c-.4.9-.29 1.95.3 2.74L42.2 49.88a2.3 2.3 0 1 1-3.73 2.66L20.64 25.8a2.7 2.7 0 0 0-2.5-1.2 5 5 0 0 1-4.51-2.05L3.02 7.75a1.2 1.2 0 1 0-1.94 1.38L11.7 23.97a7.38 7.38 0 0 0 6.67 3.04c.12-.02.23.02.3.1l17.81 26.75a4.64 4.64 0 0 0 3.9 2.1 4.68 4.68 0 0 0 3.7-7.54L24.41 22.99zm17.51-22c3.25-1.37 6.27-1.25 8.5.33 2.2 1.59 3.3 4.4 3.09 7.93a20.3 20.3 0 0 1-3.9 10.12c-3.03 4.22-7.14 7.15-11.03 7.8a5.53 5.53 0 0 0-3.01 1.55 1.2 1.2 0 0 1-1.66-1.7 7.92 7.92 0 0 1 4.26-2.2c3.23-.54 6.88-3.15 9.47-6.83a17.87 17.87 0 0 0 3.47-8.9c.17-2.67-.57-4.73-2.1-5.82-1.52-1.09-3.71-1.11-6.18-.08a17.87 17.87 0 0 0-7.28 6.18c-2.61 3.67-3.9 7.95-3.36 11.18.21 1.3.1 2.61-.33 3.85a1.2 1.2 0 1 1-2.25-.77c.3-.86.37-1.78.23-2.68-.66-3.89.75-8.73 3.77-12.96a20.3 20.3 0 0 1 8.31-7zM19.01 53.67l6.35-9.64h-.01a1.2 1.2 0 0 0-1.99-1.32l-6.32 9.66a2.7 2.7 0 0 1-1.72 1.16c-.62.13-1.26 0-1.79-.35a2.45 2.45 0 0 1-.6-3.52l8.73-11.32a1.2 1.2 0 1 0-1.89-1.46L11.05 48.2a4.86 4.86 0 0 0 1.12 6.95 4.68 4.68 0 0 0 3.6.7A5.1 5.1 0 0 0 19 53.68zm-1.14-34.53a1.2 1.2 0 0 1-2.04.13L6.12 5.4a1.2 1.2 0 0 1 1.95-1.36l9.71 13.87c.26.36.3.84.09 1.23z" clip-rule="evenodd"/></svg>