<svg xmlns="http://www.w3.org/2000/svg" xmlns:xlink="http://www.w3.org/1999/xlink" width="40" height="49" viewBox="0 0 40 49"><defs><path id="1t44a" d="M855.195 7420.132v-.22a12.997 12.997 0 0 1 2.405-7.466v1.153h4.81v-2.196h-3.99a14.962 14.962 0 0 1 8.088-4.886 11.132 11.132 0 0 0-1.647 8.916 11.083 11.083 0 0 0 5.527 7.17v4.886h10.439v-4.886a11.05 11.05 0 0 0 3.224-2.635 75.994 75.994 0 0 1-.71 8.73 100.444 100.444 0 0 0-.492 4.72l-.11 1.209a25.646 25.646 0 0 0-.109 4.447v8.235h-19.347v-6.753l-7.487.494-.656-8.29-4.7-.44zm20.44-16.25c4.192-.03 7.83 2.898 8.715 7.015.886 4.116-1.224 8.292-5.054 10.004l-.656.275v4.117h-6.066v-4.062l-.656-.275c-3.83-1.712-5.939-5.888-5.053-10.005.885-4.116 4.523-7.044 8.715-7.015zm-21.806 39.529l7.268-.494v6.643h23.72v-10.596a23.273 23.273 0 0 1 .108-4.118c.055-.439.055-.823.11-1.263.109-1.317.273-2.91.492-4.611.491-4.228 1.038-8.95.437-12.298a11.12 11.12 0 0 0-3.776-12.787 11 11 0 0 0-13.275.104c-8.58.385-15.795 7.522-15.904 15.757l-5.629 14.44 5.738.548z"/></defs><use xlink:href="#1t44a" transform="translate(-847 -7401)"/></svg>