<svg xmlns="http://www.w3.org/2000/svg" width="47" height="56" fill="none"><path fill="#000" fill-rule="evenodd" d="M23.52.64c-9.16 0-16.6 7.46-16.6 16.63 0 3.38 1.55 6.98 3.39 10.47s4.03 6.87 5.47 9.5l6.58 12.05a1.32 1.32 0 0 0 2.31 0l6.57-12.04c1.45-2.64 3.64-6.02 5.48-9.51 1.84-3.5 3.4-7.09 3.4-10.47C40.11 8.1 32.66.64 23.51.64zm0 2.64c7.72 0 13.96 6.25 13.96 13.99 0 2.53-1.32 5.89-3.09 9.23-1.77 3.35-3.93 6.7-5.46 9.48l-5.42 9.92-5.42-9.92c-1.52-2.79-3.69-6.13-5.45-9.48-1.77-3.34-3.09-6.7-3.09-9.23 0-7.74 6.23-14 13.97-14z" clip-rule="evenodd"/><path fill="#000" fill-rule="evenodd" d="M23.52 10.08a7.35 7.35 0 0 0-7.33 7.34c0 4.03 3.3 7.33 7.33 7.33a7.35 7.35 0 0 0 0-14.67zm0 2.64c2.6 0 4.68 2.08 4.68 4.7 0 2.6-2.08 4.69-4.68 4.69a4.67 4.67 0 0 1-4.7-4.7c0-2.6 2.09-4.69 4.7-4.69zM10.36 44.99a1.32 1.32 0 0 0-.88.34l-8.6 7.73c-.94.95-.22 2.3.89 2.3h43.49c1.35 0 1.64-1.54.88-2.3l-8.6-7.73a1.33 1.33 0 0 0-.87-.34h-7.88c-1.62 0-1.72 2.64 0 2.64h7.37l5.66 5.1H5.21l5.66-5.1h7.37c1.71 0 1.6-2.64 0-2.64h-7.88z" clip-rule="evenodd"/></svg>