<svg xmlns="http://www.w3.org/2000/svg" xmlns:xlink="http://www.w3.org/1999/xlink" width="35" height="36"><defs><path id="a" d="M960.84 11421.94a16.54 16.54 0 0 0-6.66 13.23c0 9.06 7.32 16.42 16.32 16.42 5 0 9.64-2.28 12.7-6.12a18.32 18.32 0 0 1-4.7.61 18.58 18.58 0 0 1-17.66-24.14zm9.66 31.85c-10.2 0-18.5-8.35-18.5-18.62a18.7 18.7 0 0 1 10.63-16.85 1.1 1.1 0 0 1 1.43 1.5 16.3 16.3 0 0 0-1.87 7.65c0 9.05 7.32 16.42 16.32 16.42 2.42 0 4.75-.53 6.94-1.56.42-.2.93-.1 1.25.23.32.34.4.86.17 1.27a18.45 18.45 0 0 1-16.37 9.96z"/></defs><use fill="#fdd420" transform="translate(-952 -11418)" xlink:href="#a"/></svg>