<svg xmlns="http://www.w3.org/2000/svg" width="26" height="30" fill="none"><path fill="#3788CA" fill-rule="evenodd" d="M25.78 16.72a.79.79 0 0 0-1.03-.33l-4.05 2.08-3.9-2.28v-2.74l3.9-2.28 4.05 2.09a.77.77 0 1 0 .7-1.37l-3.18-1.64 3.18-1.86a.77.77 0 0 0 .28-1.05.79.79 0 0 0-1.05-.27L21.5 8.93l.13-3.57a.77.77 0 0 0-.76-.8.77.77 0 0 0-.78.74l-.17 4.55-3.9 2.28-2.32-1.34V6.28l3.84-2.45c.18-.1.3-.28.34-.48.05-.2 0-.4-.1-.58a.79.79 0 0 0-1.06-.23L13.7 4.46V.75a.77.77 0 0 0-1.54 0v3.7L9.15 2.54a.79.79 0 0 0-1.06.23.76.76 0 0 0 .23 1.06l3.84 2.45v4.51l-2.3 1.34-3.91-2.28-.18-4.55a.78.78 0 0 0-.8-.74.77.77 0 0 0-.73.8l.13 3.57L1.2 7.07a.79.79 0 0 0-1.05.27A.76.76 0 0 0 .4 8.4l3.19 1.86L.42 11.9a.77.77 0 0 0-.33 1.03c.18.37.66.52 1.03.34l4.05-2.09 3.89 2.28v2.74l-3.9 2.28-4.04-2.08a.79.79 0 0 0-1.03.33c-.2.38-.05.84.33 1.04l3.18 1.63L.4 21.25a.76.76 0 0 0-.27 1.05c.2.35.7.48 1.05.28l3.18-1.86-.13 3.57c-.01.2.06.4.2.55.14.15.33.24.57.25.41 0 .75-.33.76-.74l.18-4.55 3.9-2.29 2.31 1.34v4.52L8.32 25.8a.76.76 0 0 0-.23 1.06c.22.35.71.46 1.06.24l3.01-1.92v3.69a.77.77 0 0 0 1.54 0v-3.7l3.02 1.93c.35.22.84.1 1.06-.24a.77.77 0 0 0-.24-1.06l-3.84-2.44v-4.52l2.32-1.34 3.9 2.29.17 4.55c.02.41.35.74.8.74a.77.77 0 0 0 .74-.8l-.14-3.57 3.19 1.86a.8.8 0 0 0 1.05-.28.77.77 0 0 0-.28-1.05l-3.18-1.86 3.18-1.63c.38-.2.53-.66.33-1.04zm-12.85.8l-2.33-1.35v-2.7l2.33-1.34 2.34 1.34v2.7l-2.34 1.35z" clip-rule="evenodd"/></svg>