<svg xmlns="http://www.w3.org/2000/svg" xmlns:xlink="http://www.w3.org/1999/xlink" width="49" height="60"><defs><path id="a" d="M238.64 4238.02h3.67v39.78h2.54v-20.19h12.94c.32 0 .63-.12.87-.34l5.59-5.34a1.27 1.27 0 0 0 0-1.85l-5.6-5.33a1.26 1.26 0 0 0-.86-.35h-12.94v-6.38h12.94c.32 0 .63-.13.87-.35l5.59-5.33a1.27 1.27 0 0 0 0-1.85l-5.6-5.34a1.26 1.26 0 0 0-.86-.35h-12.94v-2.4c0-2.43-1.96-4.4-4.37-4.4a4.39 4.39 0 0 0-4.37 4.4v2.4h-12.94c-.32 0-.63.13-.86.35l-5.6 5.34a1.28 1.28 0 0 0 0 1.84l5.6 5.34c.23.23.54.35.86.35h12.94v19.2h-12.94c-.32 0-.63.13-.86.35l-5.6 5.34a1.27 1.27 0 0 0 0 1.84l5.6 5.34c.23.22.54.35.86.35h12.94v7.36h2.53zm3.67 39.78h-3.67 3.67zm-18.64-9.9l-4.25-4.06 4.25-4.08h12.43v8.15h-12.43zm-4.25-36.49l4.26-4.06h33.6l4.27 4.06-4.26 4.07h-33.61zm19.22-9c0-1.03.82-1.87 1.84-1.87a1.85 1.85 0 0 1 1.83 1.86v2.42h-3.67zm18.65 24.53l4.26 4.07-4.26 4.06h-12.44v-8.13h12.44z"/></defs><use fill="#f6bc41" transform="translate(-216 -4218)" xlink:href="#a"/></svg>