<svg xmlns="http://www.w3.org/2000/svg" xmlns:xlink="http://www.w3.org/1999/xlink" width="65" height="60"><defs><path id="a" d="M95.25 4463.9a15 15 0 0 1-14.98-14.97 15 15 0 0 1 9.94-14.1 7.26 7.26 0 0 0 .46 5.01 7.27 7.27 0 0 0 4.17 3.76 1 1 0 0 0 1.28-.61 1 1 0 0 0-.6-1.28 5.28 5.28 0 0 1-3.03-2.73 5.27 5.27 0 0 1-.2-4.06 1 1 0 0 0 0-.66c.64-.13 1.3-.22 1.96-.26a7.33 7.33 0 0 0 7.33 7.28 1 1 0 0 0 0-2 5.32 5.32 0 0 1-5.32-5.28 15 15 0 0 1 13.98 14.93 15 15 0 0 1-14.99 14.97zm-29.22-15.98a15.63 15.63 0 0 1-15.62-15.46l.59.01c7.59 0 12.78-2.58 15-7.35 2.18 4.77 7.25 7.36 14.64 7.36l.5-.01.17-.01.33-.02a15.63 15.63 0 0 1-15.61 15.48zm-.39-31.2h.15l-.79 4.78c-1.29 7.8-9.32 8.96-14 8.96l-.47-.01a15.67 15.67 0 0 1 15.11-13.73zm12.1 5.29c.2.32.82 1.27 1.75 2.42a15.46 15.46 0 0 1 2.03 6l-.88.03c-5.55 0-12.42-1.56-13.65-8.97l-.79-4.78a15.6 15.6 0 0 1 11.53 5.3zm-4.1-13.59c2.91-.42 6.21 1.82 9.79 6.67 3.85 5.21 6.59 7.46 8.88 7.32 1.65-.1 2.69-1.38 3.52-2.77-1.33 3.97-3.47 8.19-6.62 8.61-2.9.4-6.05-2.52-8.08-5a17.65 17.65 0 0 0-1.92-2.6 17.59 17.59 0 0 0-11.97-5.9c.73-1.64 2.91-5.83 6.4-6.33zm21.6 23.52c-4.84 0-9.21 2.05-12.31 5.32.46-1.57.7-3.23.7-4.94v-.1l.03-.01-.06-.93-.06-1.08h-.03a17.51 17.51 0 0 0-.4-2.15c1.65 1.28 3.56 2.25 5.56 2.25.27 0 .53-.01.8-.05 3.7-.5 6.64-4.35 8.74-11.46 1-3.39 1.15-4.52.14-4.97-1.1-.48-1.83.71-2.94 2.52-.25.4-.48.82-.7 1.23-.8 1.43-1.54 2.77-2.53 2.84-1.01.06-3.07-1.01-7.14-6.51-4.05-5.5-7.99-8-11.7-7.47-5.49.8-8.15 7.98-8.26 8.28v.03a17.7 17.7 0 0 0-16.55 15.54h-.04l-.06 1.05-.05.96h.02v.03c0 9.71 7.9 17.61 17.62 17.61 5.09 0 9.67-2.16 12.89-5.62a16.92 16.92 0 0 0-.64 4.62 17 17 0 0 0 16.98 16.98 17 17 0 0 0 16.98-16.98 17 17 0 0 0-16.98-16.98z"/></defs><use fill="#6cb854" transform="translate(-48 -4406)" xlink:href="#a"/></svg>