<svg xmlns="http://www.w3.org/2000/svg" width="30" height="30" fill="none"><path fill="#000" fill-rule="evenodd" d="M29.3 14.4H23a7.9 7.9 0 0 0-1.87-4.52l5.05-5.05a.63.63 0 0 0-.89-.88l-5.05 5.04a7.9 7.9 0 0 0-4.52-1.87V.82a.63.63 0 1 0-1.25 0v6.3a7.9 7.9 0 0 0-4.52 1.87L4.9 3.95a.63.63 0 0 0-.89.88l5.05 5.05A7.9 7.9 0 0 0 7.2 14.4H.89a.63.63 0 1 0 0 1.25h6.3a7.9 7.9 0 0 0 1.87 4.53l-5.05 5.04a.63.63 0 1 0 .89.89l5.05-5.05a7.9 7.9 0 0 0 4.52 1.88v6.3a.63.63 0 0 0 1.25 0v-6.3a7.9 7.9 0 0 0 4.52-1.88l5.05 5.05a.63.63 0 1 0 .89-.89l-5.05-5.04A7.9 7.9 0 0 0 23 15.64h6.3a.63.63 0 1 0 0-1.25zm-14.2 7.31a6.7 6.7 0 1 1 .01-13.39 6.7 6.7 0 0 1-.02 13.4z" clip-rule="evenodd"/></svg>