<svg xmlns="http://www.w3.org/2000/svg" width="56" height="56" fill="none"><path fill="#000" fill-rule="evenodd" d="M55.84 28.09a27.84 27.84 0 1 1-55.69.01 27.84 27.84 0 0 1 55.69-.01zM28 3.89a24.1 24.1 0 0 0-17.11 7.09 24.1 24.1 0 0 0-7.09 17.1c0 6.7 2.7 12.74 7.09 17.12a24.11 24.11 0 0 0 17.1 7.09c6.7 0 12.74-2.7 17.12-7.09A24.11 24.11 0 0 0 52.2 28.1c0-6.7-2.7-12.73-7.09-17.11A24.11 24.11 0 0 0 28 3.89z" clip-rule="evenodd"/><path fill="#000" fill-rule="evenodd" d="M45.2 16.08s-3.58-1.57-5.24.27A3624.04 3624.04 0 0 0 23.5 35.53s-5.63-6.07-7.47-7.72c-1.85-1.66-5.25.27-5.25.27l12.75 13.6 21.68-25.6z" clip-rule="evenodd"/></svg>