<svg xmlns="http://www.w3.org/2000/svg" fill="none" viewBox="0 0 16 16">
  <path fill="#000" fill-rule="evenodd" d="M16 11.3c0 1.4-.48 2.6-1.33 3.44A4.7 4.7 0 0 1 11.3 16H4.71a4.7 4.7 0 0 1-3.38-1.26A4.52 4.52 0 0 1 0 11.3V4.69C0 1.92 1.87 0 4.7 0h6.65c1.39 0 2.54.48 3.38 1.32A4.57 4.57 0 0 1 16 4.7v6.62zM11.01 2H4.93c-.88 0-1.66.28-2.16.77-.5.5-.77 1.28-.77 2.16v6.08c0 .89.28 1.66.83 2.22.55.5 1.27.77 2.16.77H11c.89 0 1.66-.28 2.16-.77.55-.5.83-1.28.83-2.16V4.99c0-.89-.28-1.6-.77-2.16A2.96 2.96 0 0 0 11 2z" clip-rule="evenodd"/>
  <path fill="#000" fill-rule="evenodd" d="M11 4c0 .56.44 1 1 1s1-.44 1-1-.44-1-1-1-1 .44-1 1zm-1 4a2 2 0 1 1-4 0 2 2 0 0 1 4 0zm-2.03 4A3.99 3.99 0 0 1 4 8c0-2.24 1.81-4 3.97-4a4 4 0 0 1 0 8z" clip-rule="evenodd"/>
</svg>